<?xml version="1.0" encoding="utf-8"?>
<!-- Generator: Adobe Illustrator 27.5.0, SVG Export Plug-In . SVG Version: 6.00 Build 0)  -->
<svg version="1.1" id="Layer_1" xmlns="http://www.w3.org/2000/svg" xmlns:xlink="http://www.w3.org/1999/xlink" x="0px" y="0px"
	 viewBox="0 0 65 65" style="enable-background:new 0 0 65 65;" xml:space="preserve">
<style type="text/css">
	.st0{fill:#3C003C;}
</style>
<path class="st0" d="M61.7,0H15.4v3c0,0.6-0.5,1-1,1H13h-1.3h-1.6H9.4H9.1c-0.6,0-1-0.5-1-1V0H3.3C1.5,0,0,1.5,0,3.3V65h65V3.3
	C65,1.5,63.5,0,61.7,0z M11.7,6.2H13v1.4l-1.3-0.1V6.2z M9.4,6.2h0.8v1.2L9.4,7.3V6.2z M62.9,62.9H2.1V3.3c0-0.6,0.5-1.2,1.2-1.2
	h2.7V3c0,1.6,1.1,2.8,2.6,3.1v1.1v0.5l2.8,2.9v0.3c0,0.4,0.3,0.7,0.7,0.7H5.9V25c0,0.3,0.2,0.5,0.5,0.5h2.4l2.1,2.4H9.6H9.5h-3
	c-0.3,0-0.5,0.2-0.5,0.5v13.6c0,0.3,0.2,0.5,0.5,0.5h1.1l0.2,2.5H6.5c-0.3,0-0.5,0.2-0.5,0.5v13.6c0,0.3,0.2,0.5,0.5,0.5h3.1
	c0.3,0,0.5-0.2,0.5-0.5V58l8.4-3.5v1.6v3.1c0,0.3,0.2,0.5,0.5,0.5h3.1h5.2c0.3,0,0.5-0.2,0.5-0.5v-1.6l1.8,0.3v1.3
	c0,0.3,0.2,0.5,0.5,0.5h3.1c0.3,0,0.5-0.2,0.5-0.5v-1.6l3-1.6l2.6,3.5c0.1,0.2,0.3,0.3,0.5,0.3h3.5c0.4,0,0.6-0.4,0.4-0.7l-9.7-13.6
	c-0.2-0.2-0.4-0.4-0.7-0.4h-0.1h-1.4l-9.3-12.7v-3.9c0-0.3-0.2-0.5-0.5-0.5h-1.4l2-2.4h4.6c0.3,0,0.5-0.2,0.5-0.5v-3.1
	c0-0.3-0.2-0.5-0.5-0.5h-1.1l2.6-3.1l2.3,3.6L29.5,25c0,0.3,0.2,0.5,0.5,0.5h3.1H40c0.3,0,0.5-0.2,0.5-0.5v-3.1
	c0-0.3-0.2-0.5-0.5-0.5h-2.2l8.4-3.9L42.1,25c0,0.3,0.2,0.5,0.5,0.5h3.1h6.8c0.3,0,0.5-0.2,0.5-0.5v-3.1c0-0.3-0.2-0.5-0.5-0.5h-4.3
	l2.1-4l4.5,3.1V25c0,0.3,0.2,0.5,0.5,0.5h3.1c0.3,0,0.5-0.2,0.5-0.5V11.4c0-0.3-0.2-0.5-0.5-0.5h-3.1c-0.3,0-0.5,0.2-0.5,0.5v3
	l-2.8-0.2l1.5-2.8c0-0.3-0.2-0.5-0.5-0.5H50h-6.8c-0.3,0-0.5,0.2-0.5,0.5v2.1L40,13.3l1-1.9c0-0.3-0.2-0.5-0.5-0.5h-3.1h-6.8
	c-0.3,0-0.5,0.2-0.5,0.5v3.1c0,0.3,0.2,0.5,0.5,0.5h0.7L29,17.9l-1.7-2.8h0.2c0.3,0,0.5-0.2,0.5-0.5v-3.1c0-0.3-0.2-0.5-0.5-0.5
	h-5.2h-3.1c-0.3,0-0.5,0.2-0.5,0.5v1.4L16,13.2c-0.5-0.7-1.1-1.3-1.9-1.7c0,0,0,0-0.1-0.1c-0.7-0.4-1.6-0.5-1.8-0.5h-0.1
	c-0.1,0-0.1,0-0.1-0.1v-0.2l2.8-2.9V6.1c1.5-0.3,2.6-1.5,2.6-3.1V2.1h44.3c0.6,0,1.2,0.5,1.2,1.2C62.9,3.3,62.9,62.9,62.9,62.9z
	 M11.7,55.6c2.3,0,4.2-1.5,4.9-3.6l1.9,1v1.2l-8.4,3.5v-2.2L11.7,55.6L11.7,55.6z M10.1,51.4v-2.1h1.6c0.6,0,1,0.5,1,1s-0.5,1-1,1
	L10.1,51.4L10.1,51.4z M29.8,51.4l-7.1,3.2v-7.7l7.1,2.6V51.4z M16.7,48.8l1.8-1.1v5.1l-1.8-1c0.1-0.5,0.2-0.9,0.2-1.4
	C17,49.8,16.9,49.3,16.7,48.8z M27.4,55.6h-4.7v-0.7l7.1-3.2v6L28,57.4v-1.3C28,55.8,27.7,55.6,27.4,55.6z M36.9,55.8L34,57.4v-5.5
	L36.9,55.8z M31.7,45.1h-1.4c-0.3,0-0.5,0.2-0.5,0.5v3.6l-7.1-2.6v-1c0-0.3-0.2-0.5-0.5-0.5h-3.1c-0.3,0-0.5,0.2-0.5,0.5v1.7
	l-1.9,1.2c-0.7-2-2.6-3.5-4.9-3.5H9.6H9.5H8l-0.2-2.5h1.7h0.2h2.1c2,0,3.7-1.1,4.6-2.8l2.2-0.3v2.6c0,0.3,0.2,0.5,0.5,0.5h3.1
	c0.3,0,0.5-0.2,0.5-0.5v-9.3L31.7,45.1L31.7,45.1z M12.8,33.2v4.2c0,0.6-0.5,1-1,1h-1.6v-6.3h1.6C12.3,32.1,12.8,32.6,12.8,33.2z
	 M17,37.4v-2.7l1.6,1.8v2.8l-2.1,0.3C16.8,38.9,17,38.1,17,37.4z M19.1,27.9c-0.3,0-0.5,0.2-0.5,0.5v7.6L17,34.3v-1.1
	c0-2.9-2.3-5.2-5.2-5.2h-0.4l-2.1-2.4h0.4c0.3,0,0.5-0.2,0.5-0.5v-1.4l8.4-1.1V25c0,0.3,0.2,0.5,0.5,0.5h3.1h0.3l-2,2.4L19.1,27.9
	L19.1,27.9z M16.6,18l1.9,2v1.9v0.3l-8.4,1.1v-2h1.6C14,21.4,15.9,20,16.6,18z M22.7,21.4v-1.6h2.7c0.2,0,0.4-0.2,0.4-0.4V17
	c0-0.2-0.2-0.4-0.4-0.4h-2.7v-1.6H27l1.9,3L26,21.4H22.7z M18.5,14.6V17v2.4v0.3l-1.8-2c0.2-0.5,0.3-1,0.3-1.6c0-1-0.3-1.9-0.8-2.7
	l2.4-0.3L18.5,14.6L18.5,14.6z M12.8,16.1c0,0.6-0.5,1-1,1h-1.6v-2.1h1.6C12.3,15.1,12.8,15.6,12.8,16.1z M55,20.2l-4.4-3l1.5-2.7
	l2.9,0.2C55,14.6,55,20.2,55,20.2z M43.2,15.1h4.3l-1.1,2l-9.2,4.3h-1.5l4.2-7.8l2.7,0.2v0.8C42.6,14.8,42.9,15.1,43.2,15.1z
	 M34.9,15.1l-3.5,6.6l-2.2-3.6l2.5-3L34.9,15.1L34.9,15.1z"/>
</svg>
