<?xml version="1.0" encoding="UTF-8" standalone="no"?><!DOCTYPE svg PUBLIC "-//W3C//DTD SVG 1.1//EN" "http://www.w3.org/Graphics/SVG/1.1/DTD/svg11.dtd"><svg width="100%" height="100%" viewBox="0 0 1959 1130" version="1.1" xmlns="http://www.w3.org/2000/svg" xmlns:xlink="http://www.w3.org/1999/xlink" xml:space="preserve" xmlns:serif="http://www.serif.com/" style="fill-rule:evenodd;clip-rule:evenodd;stroke-linejoin:round;stroke-miterlimit:2;"><g transform="matrix(4.166667,0,0,4.166667,-6762.5,-6125)"><g id="logo_2_wh" transform="matrix(1,0,0,0.886116,-0.48427,198.196898)"><rect x="1623.484" y="1436.046" width="470" height="304.7" style="fill:none;"/><clipPath id="_clip1"><rect x="1623.484" y="1436.046" width="470" height="304.7"/></clipPath><g clip-path="url(#_clip1)"><g transform="matrix(1.067915,0,0,0.973458,1115.594415,1349.983162)"><g transform="matrix(1,0,0,1,0.064781,0)"><g transform="matrix(-0,-0.664779,-0.536968,0,1171.929475,864.274356)"><path d="M696.177,738.034L870.564,912.422L696.177,912.422L696.177,738.034Z" style="fill:url(#_Linear2);"/></g><g transform="matrix(-0.536968,-0,0,-0.664779,1149.453292,804.910058)"><path d="M696.177,738.034L870.564,912.422L696.177,912.422L696.177,738.034Z" style="fill:url(#_Linear3);"/></g><g><g transform="matrix(-0,-0.664779,-0.536968,0,1171.929475,864.274356)"><path d="M696.177,911.831L696.177,738.034L783.075,824.933L696.177,911.831Z" style="fill:url(#_Linear4);"/></g><g transform="matrix(-0.536968,-0,0,-0.664779,1149.453292,804.910058)"><path d="M696.177,780.675L696.177,738.034L717.497,759.354L696.177,780.675Z" style="fill:url(#_Linear5);"/></g></g></g><g transform="matrix(0.536968,0,0,0.664779,448.688626,-205.088282)"><path d="M696.177,738.034L870.564,912.422L696.177,912.422L696.177,738.034Z" style="fill:url(#_Linear6);"/></g><g transform="matrix(0.936404,0,0,1.15929,-298.360604,-720.644435)"><path d="M1046.998,697.933C1046.998,715.874 1032.432,730.439 1014.491,730.439C996.55,730.439 981.984,715.874 981.984,697.933L1046.998,697.933Z" style="fill:url(#_Linear7);"/></g><g transform="matrix(0.87635,0,0,0.963159,445.383678,-326.999447)"><g transform="matrix(1.388861,0,0,1.173352,-931.906188,-314.257639)"><path d="M696.177,738.034L826.967,912.422L696.177,912.422L696.177,738.034Z" style="fill:url(#_Linear8);"/></g><g transform="matrix(-0.735279,0,0,0.828249,728.520056,0.622321)"><path d="M696.177,738.034L870.564,912.422L696.177,912.422L696.177,738.034Z" style="fill:url(#_Linear9);"/></g></g><g transform="matrix(0,-1.15929,0.936404,0,166.549011,708.658843)"><g transform="matrix(1.049968,0,0,1.049968,-742.038551,-48.885431)"><circle cx="1131.559" cy="743.661" r="30.953" style="fill:url(#_Linear10);"/></g><g transform="matrix(1,0,0,1,-568.435482,34.009296)"><path d="M991.51,674.951C997.394,669.067 1005.52,665.426 1014.491,665.426C1032.432,665.426 1046.998,679.992 1046.998,697.933C1046.998,706.903 1043.356,715.03 1037.472,720.914L991.51,674.951Z" style="fill:url(#_Linear11);"/></g></g></g></g></g></g><defs><linearGradient id="_Linear2" x1="0" y1="0" x2="1" y2="0" gradientUnits="userSpaceOnUse" gradientTransform="matrix(138.095791,106.612436,106.612436,-138.095791,745.394435,779.651032)"><stop offset="0" style="stop-color:rgb(183,154,196);stop-opacity:1"/><stop offset="1" style="stop-color:white;stop-opacity:1"/></linearGradient><linearGradient id="_Linear3" x1="0" y1="0" x2="1" y2="0" gradientUnits="userSpaceOnUse" gradientTransform="matrix(106.612436,138.095791,-138.095791,106.612436,737.793472,656.095162)"><stop offset="0" style="stop-color:rgb(183,154,196);stop-opacity:1"/><stop offset="1" style="stop-color:white;stop-opacity:1"/></linearGradient><linearGradient id="_Linear4" x1="0" y1="0" x2="1" y2="0" gradientUnits="userSpaceOnUse" gradientTransform="matrix(108.129709,42.857363,42.857363,-108.129709,719.203837,731.07936)"><stop offset="0" style="stop-color:rgb(183,154,196);stop-opacity:1"/><stop offset="1" style="stop-color:white;stop-opacity:1"/></linearGradient><linearGradient id="_Linear5" x1="0" y1="0" x2="1" y2="0" gradientUnits="userSpaceOnUse" gradientTransform="matrix(42.857363,108.129709,-108.129709,42.857363,689.2218,629.904564)"><stop offset="0" style="stop-color:rgb(183,154,196);stop-opacity:1"/><stop offset="1" style="stop-color:white;stop-opacity:1"/></linearGradient><linearGradient id="_Linear6" x1="0" y1="0" x2="1" y2="0" gradientUnits="userSpaceOnUse" gradientTransform="matrix(-122.381484,-152.476958,152.476958,-122.381484,867.367587,912.42156)"><stop offset="0" style="stop-color:rgb(183,154,196);stop-opacity:1"/><stop offset="1" style="stop-color:white;stop-opacity:1"/></linearGradient><linearGradient id="_Linear7" x1="0" y1="0" x2="1" y2="0" gradientUnits="userSpaceOnUse" gradientTransform="matrix(-65,-12.373291,12.373291,-65,1061.997766,720.044861)"><stop offset="0" style="stop-color:rgb(183,154,196);stop-opacity:1"/><stop offset="1" style="stop-color:white;stop-opacity:1"/></linearGradient><linearGradient id="_Linear8" x1="0" y1="0" x2="1" y2="0" gradientUnits="userSpaceOnUse" gradientTransform="matrix(-20.046092,-96.639109,72.479332,-26.728123,761.571946,941.502715)"><stop offset="0" style="stop-color:rgb(183,154,196);stop-opacity:1"/><stop offset="1" style="stop-color:white;stop-opacity:1"/></linearGradient><linearGradient id="_Linear9" x1="0" y1="0" x2="1" y2="0" gradientUnits="userSpaceOnUse" gradientTransform="matrix(20.926437,-122.185334,-122.185334,-20.926437,728.423433,947.413251)"><stop offset="0" style="stop-color:rgb(183,154,196);stop-opacity:1"/><stop offset="1" style="stop-color:white;stop-opacity:1"/></linearGradient><linearGradient id="_Linear10" x1="0" y1="0" x2="1" y2="0" gradientUnits="userSpaceOnUse" gradientTransform="matrix(-58.539644,61.445842,-61.445842,-58.539644,1205.737238,670.864761)"><stop offset="0" style="stop-color:rgb(183,154,196);stop-opacity:1"/><stop offset="1" style="stop-color:white;stop-opacity:1"/></linearGradient><linearGradient id="_Linear11" x1="0" y1="0" x2="1" y2="0" gradientUnits="userSpaceOnUse" gradientTransform="matrix(-50.351942,0,-0,-50.351942,1061.740793,697.925865)"><stop offset="0" style="stop-color:rgb(183,154,196);stop-opacity:1"/><stop offset="1" style="stop-color:white;stop-opacity:1"/></linearGradient></defs></svg>