<?xml version="1.0" encoding="UTF-8"?><svg id="Logo" xmlns="http://www.w3.org/2000/svg" viewBox="0 0 835 423"><rect x="745" y="115" width="50" height="268" style="fill:#141428; stroke-width:0px;"/><rect x="745" y="40" width="50" height="37.5" style="fill:#141428; stroke-width:0px;"/><rect x="410" y="115" width="50" height="268" style="fill:#141428; stroke-width:0px;"/><rect x="410" y="40" width="50" height="37.5" style="fill:#141428; stroke-width:0px;"/><path d="M602.5,115c-15.323,0-29.774,3.73-42.5,10.325v-10.325h-50v268h50v-175.5c0-23.472,19.028-42.5,42.5-42.5s42.5,19.028,42.5,42.5v175.5h50v-175.5c0-51.086-41.414-92.5-92.5-92.5Z" style="fill:#141428; stroke-width:0px;"/><path d="M267.5,115c-26.628,0-50.623,11.255-67.5,29.263-16.877-18.008-40.872-29.263-67.5-29.263-15.323,0-29.774,3.73-42.5,10.325v-10.325h-50v268h50v-175.5c0-23.472,19.028-42.5,42.5-42.5s42.5,19.028,42.5,42.5v175.5h50v-175.5c0-23.472,19.028-42.5,42.5-42.5s42.5,19.028,42.5,42.5v175.5h50v-175.5c0-51.086-41.414-92.5-92.5-92.5Z" style="fill:#141428; stroke-width:0px;"/></svg>