<?xml version="1.0" encoding="UTF-8" standalone="no"?><!DOCTYPE svg PUBLIC "-//W3C//DTD SVG 1.1//EN" "http://www.w3.org/Graphics/SVG/1.1/DTD/svg11.dtd"><svg width="100%" height="100%" viewBox="0 0 1959 1125" version="1.1" xmlns="http://www.w3.org/2000/svg" xmlns:xlink="http://www.w3.org/1999/xlink" xml:space="preserve" xmlns:serif="http://www.serif.com/" style="fill-rule:evenodd;clip-rule:evenodd;stroke-linejoin:round;stroke-miterlimit:2;"><g transform="matrix(4.166667,0,0,4.166667,-6762.5,0)"><g id="logo_wh" transform="matrix(1,0,0,0.692684,-0.48427,82.563922)"><rect x="1623.484" y="-119.194" width="470" height="389.788" style="fill:none;"/><clipPath id="_clip1"><rect x="1623.484" y="-119.194" width="470" height="389.788"/></clipPath><g clip-path="url(#_clip1)"><g transform="matrix(1.067915,0,0,1.245295,1115.594415,-229.355649)"><g transform="matrix(1,0,0,1,0.064781,0)"><g transform="matrix(-0,-0.664779,-0.536968,0,1171.929475,864.274356)"><path d="M696.177,738.034L870.564,912.422L696.177,912.422L696.177,738.034Z" style="fill:url(#_Linear2);"/></g><g transform="matrix(-0.536968,-0,0,-0.664779,1149.453292,804.910058)"><path d="M696.177,738.034L870.564,912.422L696.177,912.422L696.177,738.034Z" style="fill:url(#_Linear3);"/></g><g><g transform="matrix(-0,-0.664779,-0.536968,0,1171.929475,864.274356)"><path d="M696.177,911.831L696.177,738.034L783.075,824.933L696.177,911.831Z" style="fill:url(#_Linear4);"/></g><g transform="matrix(-0.536968,-0,0,-0.664779,1149.453292,804.910058)"><path d="M696.177,780.675L696.177,738.034L717.497,759.354L696.177,780.675Z" style="fill:url(#_Linear5);"/></g></g></g><g transform="matrix(0.536968,0,0,0.664779,448.688626,-205.088282)"><path d="M696.177,738.034L870.564,912.422L696.177,912.422L696.177,738.034Z" style="fill:url(#_Linear6);"/></g><g transform="matrix(0.936404,0,0,1.15929,-298.360604,-720.644435)"><path d="M1046.998,697.933C1046.998,715.874 1032.432,730.439 1014.491,730.439C996.55,730.439 981.984,715.874 981.984,697.933L1046.998,697.933Z" style="fill:url(#_Linear7);"/></g><g transform="matrix(0,-1.15929,0.936404,0,166.549011,708.658843)"><g transform="matrix(1.049968,0,0,1.049968,-742.038551,-48.885431)"><circle cx="1131.559" cy="743.661" r="30.953" style="fill:url(#_Linear8);"/></g><g transform="matrix(1,0,0,1,-568.435482,34.009296)"><path d="M991.51,674.951C997.394,669.067 1005.52,665.426 1014.491,665.426C1032.432,665.426 1046.998,679.992 1046.998,697.933C1046.998,706.903 1043.356,715.03 1037.472,720.914L991.51,674.951Z" style="fill:url(#_Linear9);"/></g></g><g transform="matrix(0.874533,0,0,0.960938,445.350174,-326.039748)"><g transform="matrix(1.391746,0,0,1.176065,-933.803951,-315.982784)"><path d="M696.177,738.034L826.967,912.422L696.177,912.422L696.177,738.034Z" style="fill:url(#_Linear10);"/></g><g transform="matrix(-0.736807,0,0,0.830163,730.071898,-0.374952)"><path d="M696.177,738.034L870.564,912.422L696.177,912.422L696.177,738.034Z" style="fill:url(#_Linear11);"/></g></g></g></g></g></g><defs><linearGradient id="_Linear2" x1="0" y1="0" x2="1" y2="0" gradientUnits="userSpaceOnUse" gradientTransform="matrix(101.509835,101.311535,101.311535,-101.509835,727.667408,824.932815)"><stop offset="0" style="stop-color:rgb(145,203,196);stop-opacity:1"/><stop offset="1" style="stop-color:white;stop-opacity:1"/></linearGradient><linearGradient id="_Linear3" x1="0" y1="0" x2="1" y2="0" gradientUnits="userSpaceOnUse" gradientTransform="matrix(101.311535,101.509835,-101.509835,101.311535,783.075255,638.368135)"><stop offset="0" style="stop-color:rgb(145,203,196);stop-opacity:1"/><stop offset="1" style="stop-color:white;stop-opacity:1"/></linearGradient><linearGradient id="_Linear4" x1="0" y1="0" x2="1" y2="0" gradientUnits="userSpaceOnUse" gradientTransform="matrix(98.103485,56.545676,56.545676,-98.103485,705.185359,787.94577)"><stop offset="0" style="stop-color:rgb(145,203,196);stop-opacity:1"/><stop offset="1" style="stop-color:white;stop-opacity:1"/></linearGradient><linearGradient id="_Linear5" x1="0" y1="0" x2="1" y2="0" gradientUnits="userSpaceOnUse" gradientTransform="matrix(56.545676,98.103485,-98.103485,56.545676,746.08821,615.886086)"><stop offset="0" style="stop-color:rgb(145,203,196);stop-opacity:1"/><stop offset="1" style="stop-color:white;stop-opacity:1"/></linearGradient><linearGradient id="_Linear6" x1="0" y1="0" x2="1" y2="0" gradientUnits="userSpaceOnUse" gradientTransform="matrix(-181.900212,-136.936114,136.936114,-181.900212,892.896014,939.520426)"><stop offset="0" style="stop-color:rgb(145,203,196);stop-opacity:1"/><stop offset="1" style="stop-color:white;stop-opacity:1"/></linearGradient><linearGradient id="_Linear7" x1="0" y1="0" x2="1" y2="0" gradientUnits="userSpaceOnUse" gradientTransform="matrix(-58.090825,-31.644056,31.644056,-58.090825,1055.088591,745.165045)"><stop offset="0" style="stop-color:rgb(145,203,196);stop-opacity:1"/><stop offset="1" style="stop-color:white;stop-opacity:1"/></linearGradient><linearGradient id="_Linear8" x1="0" y1="0" x2="1" y2="0" gradientUnits="userSpaceOnUse" gradientTransform="matrix(16.783309,-22.001414,22.001414,16.783309,1083.822101,796.615809)"><stop offset="0" style="stop-color:rgb(145,203,196);stop-opacity:1"/><stop offset="1" style="stop-color:white;stop-opacity:1"/></linearGradient><linearGradient id="_Linear9" x1="0" y1="0" x2="1" y2="0" gradientUnits="userSpaceOnUse" gradientTransform="matrix(-32.5,0,-0,-32.5,1046.997766,697.925865)"><stop offset="0" style="stop-color:rgb(145,203,196);stop-opacity:1"/><stop offset="1" style="stop-color:white;stop-opacity:1"/></linearGradient><linearGradient id="_Linear10" x1="0" y1="0" x2="1" y2="0" gradientUnits="userSpaceOnUse" gradientTransform="matrix(-26.927449,-144.980588,108.735441,-35.903265,761.571946,959.338387)"><stop offset="0" style="stop-color:rgb(145,203,196);stop-opacity:1"/><stop offset="1" style="stop-color:white;stop-opacity:1"/></linearGradient><linearGradient id="_Linear11" x1="0" y1="0" x2="1" y2="0" gradientUnits="userSpaceOnUse" gradientTransform="matrix(20.34515,-111.520469,-111.520469,-20.34515,717.619196,936.748386)"><stop offset="0" style="stop-color:rgb(145,203,196);stop-opacity:1"/><stop offset="1" style="stop-color:white;stop-opacity:1"/></linearGradient></defs></svg>