<?xml version="1.0" encoding="UTF-8" standalone="no"?><!DOCTYPE svg PUBLIC "-//W3C//DTD SVG 1.1//EN" "http://www.w3.org/Graphics/SVG/1.1/DTD/svg11.dtd"><svg width="100%" height="100%" viewBox="0 0 709 963" version="1.1" xmlns="http://www.w3.org/2000/svg" xmlns:xlink="http://www.w3.org/1999/xlink" xml:space="preserve" xmlns:serif="http://www.serif.com/" style="fill-rule:evenodd;clip-rule:evenodd;stroke-linejoin:round;stroke-miterlimit:2;"><g transform="matrix(4.166667,0,0,4.166667,-5054.166667,-166.666667)"><g id="emblem_wh" transform="matrix(1,0,0,0.849983,-0.818225,40.80587)"><rect x="1213.818" y="0" width="170" height="270.594" style="fill:none;"/><clipPath id="_clip1"><rect x="1213.818" y="0" width="170" height="270.594"/></clipPath><g clip-path="url(#_clip1)"><g transform="matrix(1,0,0,1.176495,0.818225,65.868637)"><g transform="matrix(0.933927,0,0,0.828902,1181.040049,-453.535172)"><g transform="matrix(1.391746,0,0,1.176065,-933.803951,-315.982784)"><path d="M696.177,738.034L826.967,912.422L696.177,912.422L696.177,738.034Z" style="fill:url(#_Linear2);"/></g><g transform="matrix(-0.736807,0,0,0.830163,730.071898,-0.374952)"><path d="M696.177,738.034L870.564,912.422L696.177,912.422L696.177,738.034Z" style="fill:url(#_Linear3);"/></g></g><g transform="matrix(0.933927,0,0,0.828902,1171.040049,-453.535172)"><g transform="matrix(0,-1.206416,1.070748,0,-590.685411,1056.964915)"><g transform="matrix(1.049968,0,0,1.049968,-742.038551,-48.885431)"><path d="M1153.435,765.551C1147.833,771.15 1140.097,774.614 1131.559,774.614C1114.475,774.614 1100.605,760.745 1100.605,743.661C1100.605,735.123 1104.07,727.387 1109.669,721.785L1153.435,765.551Z" style="fill:url(#_Linear4);"/></g><g transform="matrix(1,0,0,1,-568.435482,34.009296)"><path d="M1046.998,697.933C1046.998,706.903 1043.356,715.03 1037.472,720.914L1037.467,720.909C1043.353,715.027 1046.996,706.902 1046.998,697.933ZM991.515,674.956L991.51,674.951C997.394,669.067 1005.52,665.426 1014.491,665.426C1005.522,665.428 997.396,669.071 991.515,674.956Z" style="fill:url(#_Linear5);"/></g></g><g transform="matrix(1.070748,0,0,1.206416,-18.50689,-156.206346)"><path d="M165.062,559.544L165.062,559.537C165.064,541.601 179.626,527.039 197.562,527.037L197.569,527.037C206.538,527.039 214.664,530.682 220.546,536.568L174.593,582.52C168.707,576.639 165.064,568.513 165.062,559.544Z" style="fill:url(#_Linear6);"/></g></g></g></g></g></g><defs><linearGradient id="_Linear2" x1="0" y1="0" x2="1" y2="0" gradientUnits="userSpaceOnUse" gradientTransform="matrix(-26.927449,-144.980588,108.735441,-35.903265,761.571946,959.338387)"><stop offset="0" style="stop-color:rgb(145,203,196);stop-opacity:1"/><stop offset="1" style="stop-color:white;stop-opacity:1"/></linearGradient><linearGradient id="_Linear3" x1="0" y1="0" x2="1" y2="0" gradientUnits="userSpaceOnUse" gradientTransform="matrix(20.34515,-111.520469,-111.520469,-20.34515,717.619196,936.748386)"><stop offset="0" style="stop-color:rgb(145,203,196);stop-opacity:1"/><stop offset="1" style="stop-color:white;stop-opacity:1"/></linearGradient><linearGradient id="_Linear4" x1="0" y1="0" x2="1" y2="0" gradientUnits="userSpaceOnUse" gradientTransform="matrix(24.231937,-24.231937,24.231937,24.231937,1077.593671,794.309585)"><stop offset="0" style="stop-color:rgb(145,203,196);stop-opacity:1"/><stop offset="1" style="stop-color:white;stop-opacity:1"/></linearGradient><linearGradient id="_Linear5" x1="0" y1="0" x2="1" y2="0" gradientUnits="userSpaceOnUse" gradientTransform="matrix(32.5,25.359612,-25.359612,32.5,1014.497766,682.060614)"><stop offset="0" style="stop-color:rgb(151,199,168);stop-opacity:1"/><stop offset="1" style="stop-color:white;stop-opacity:1"/></linearGradient><linearGradient id="_Linear6" x1="0" y1="0" x2="1" y2="0" gradientUnits="userSpaceOnUse" gradientTransform="matrix(0,32.5,-32.5,0,197.562259,527.037249)"><stop offset="0" style="stop-color:rgb(145,203,196);stop-opacity:1"/><stop offset="1" style="stop-color:white;stop-opacity:1"/></linearGradient></defs></svg>