<?xml version="1.0" encoding="UTF-8"?><svg id="Logo" xmlns="http://www.w3.org/2000/svg" viewBox="0 0 1460 423"><path d="M377.5,83c-93.272,0-170.624,68.109-185.067,157.302-12.411-4.714-25.869-7.302-39.933-7.302-62.132,0-112.5,50.368-112.5,112.5v37.5h75v-37.5c0-20.711,16.789-37.5,37.5-37.5s37.5,16.789,37.5,37.5v37.5h75v-112.5c0-62.132,50.368-112.5,112.5-112.5s112.5,50.368,112.5,112.5v112.5h75v-112.5c0-103.553-83.947-187.5-187.5-187.5Z" style="fill:#3c5aff; stroke-width:0px;"/><rect x="1370" y="115" width="50" height="268" style="fill:#141428; stroke-width:0px;"/><rect x="1370" y="40" width="50" height="37.5" style="fill:#141428; stroke-width:0px;"/><rect x="1035" y="115" width="50" height="268" style="fill:#141428; stroke-width:0px;"/><rect x="1035" y="40" width="50" height="37.5" style="fill:#141428; stroke-width:0px;"/><path d="M1227.5,115c-15.323,0-29.774,3.73-42.5,10.325v-10.325h-50v268h50v-175.5c0-23.472,19.028-42.5,42.5-42.5s42.5,19.028,42.5,42.5v175.5h50v-175.5c0-51.086-41.414-92.5-92.5-92.5Z" style="fill:#141428; stroke-width:0px;"/><path d="M892.5,115c-26.628,0-50.623,11.255-67.5,29.263-16.877-18.008-40.872-29.263-67.5-29.263-15.323,0-29.774,3.73-42.5,10.325v-10.325h-50v268h50v-175.5c0-23.472,19.028-42.5,42.5-42.5s42.5,19.028,42.5,42.5v175.5h50v-175.5c0-23.472,19.028-42.5,42.5-42.5s42.5,19.028,42.5,42.5v175.5h50v-175.5c0-51.086-41.414-92.5-92.5-92.5Z" style="fill:#141428; stroke-width:0px;"/></svg>