<?xml version="1.0" encoding="UTF-8"?><svg id="Layer_1" xmlns="http://www.w3.org/2000/svg" xmlns:xlink="http://www.w3.org/1999/xlink" viewBox="0 0 1000 999.827"><defs><linearGradient id="linear-gradient" x1="920.765" y1="3.693" x2="920.765" y2="994.293" gradientUnits="userSpaceOnUse"><stop offset="0" stop-color="#3c5aff"/><stop offset="1" stop-color="#3c1e63"/></linearGradient><linearGradient id="linear-gradient-2" x1="499.895" y1="3.693" x2="499.895" y2="994.293" xlink:href="#linear-gradient"/><linearGradient id="linear-gradient-3" x1="887.73" y1="3.693" x2="887.73" y2="994.293" xlink:href="#linear-gradient"/></defs><path d="M966.28,450.323l-118.964,118.936c-7.716,7.714-7.716,20.222-.002,27.937l118.964,118.969c12.444,12.445,33.722,3.631,33.722-13.967v-237.905c0-17.597-21.275-26.411-33.72-13.969Z" style="fill:url(#linear-gradient); stroke-width:0px;"/><path d="M833.346,285.749c0,17.597,21.275,26.411,33.72,13.969l126.927-126.898c3.951-3.95,6.066-9.392,5.77-14.971C995.105,69.999,922.395.172,833.346.172h-104.406L729.178,0h-106.674C602.226-.116,582.872-.212,564.348,0H166.654v.086C74.596.086,0,74.692,0,166.719h.9v-.076h146c10.91,0,19.753,8.844,19.753,19.753v563.492c0,46.01-37.299,83.306-83.327,83.306H21.076c-11.938,0-21.177,10.513-19.591,22.345,10.918,81.451,80.687,144.253,165.11,144.287h.059c92.019,0,166.691-74.586,166.691-166.603l.02-500.896c.478-91.608,74.902-165.686,166.634-165.686l.002-.002c0,.058-.002.116-.002.174v124.807c-23.014,0-41.644,18.63-41.644,41.655v333.285c0,23.014,18.63,41.663,41.644,41.663v125.142c0,84.457,62.814,154.227,144.295,165.146,11.837,1.586,22.353-7.661,22.344-19.604l-.328-479.411v-166.221h-.116l-.076-82.456h.555c.096-45.943,37.413-83.193,83.384-83.193v-.737h63.536c10.91,0,19.753,8.844,19.753,19.753v99.104Z" style="fill:url(#linear-gradient-2); stroke-width:0px;"/><path d="M867.065,866.906c-12.445-12.442-33.719-3.628-33.719,13.969v118.952c38.018,0,73.085-12.723,101.121-34.138,9.442-7.212,10.239-21.161,1.836-29.562l-69.238-69.221Z" style="fill:url(#linear-gradient-3); stroke-width:0px;"/></svg>