<?xml version="1.0" encoding="utf-8"?>
<!-- Generator: Adobe Illustrator 25.4.1, SVG Export Plug-In . SVG Version: 6.00 Build 0)  -->
<svg version="1.1" xmlns="http://www.w3.org/2000/svg" xmlns:xlink="http://www.w3.org/1999/xlink" x="0px" y="0px"
	 viewBox="0 0 800 800" style="enable-background:new 0 0 800 800;" xml:space="preserve">
<style type="text/css">
	.st0{display:none;}
	.st1{display:inline;fill:#141428;}
	.st2{fill:#FFFFFF;}
	.st3{fill:#141428;}
	.st4{fill:#D1FF52;}
	.st5{fill:#0A0A0A;}
	.st6{fill:#BEEB00;}
	.st7{fill:#A9ADB1;}
</style>
<g id="BG" class="st0">
</g>
<g id="Layer_1">
	<g>
		<g>
			<g>
				<path class="st4" d="M742,368.73c-8.836,0-16-7.163-16-16l0-78.397V190.73c0-44.183-35.817-80-80-80l-30,0v10.729v53.271l30,0
					c8.836,0,16,7.164,16,16v90.397l0,71.603c0,18.011,5.955,34.629,15.999,48c-10.044,13.371-15.999,29.989-15.999,48l0,71.603
					v90.397c0,8.837-7.164,16-16,16h-30v53.271v10.729h30c44.183,0,80-35.817,80-80v-83.604l0-78.396c0-8.837,7.164-16,16-16h20
					v-10.729v-42.542V368.73H742z"/>
			</g>
			<g>
				<path class="st4" d="M60,432.73c8.836,0,16,7.163,16,16v78.397v83.603c0,44.183,35.817,80,80,80h30v-10.729V626.73h-30
					c-8.836,0-16-7.164-16-16v-90.397V448.73c0-18.011-5.955-34.629-15.999-48c10.044-13.371,15.999-29.989,15.999-48v-71.603
					l0-90.397c0-8.837,7.164-16,16-16h30v-53.271V110.73h-30c-44.183,0-80,35.817-80,80l0,83.604v78.396c0,8.837-7.164,16-16,16H40
					v10.729l0,42.542v10.729H60z"/>
			</g>
			<g>
				<g>
					<rect x="512" y="110.73" class="st4" width="64" height="64"/>
				</g>
				<g>
					<rect x="384" y="110.73" class="st4" width="64" height="64"/>
				</g>
				<g>
					<rect x="448" y="174.73" class="st4" width="64" height="64"/>
				</g>
				<g>
					<rect x="448" y="46.73" class="st4" width="64" height="64"/>
				</g>
			</g>
		</g>
		<g>
			<path class="st3" d="M384.396,275.055c-6.363-31.345-31.051-56.034-62.396-62.397c-5.17-1.05-10.52-1.603-16-1.603h-80v480h80
				c5.48,0,10.83-0.554,16-1.603c31.345-6.363,56.034-31.051,62.396-62.397c1.05-5.17,1.604-10.52,1.604-16v-320
				C386,285.576,385.446,280.225,384.396,275.055z M322,339.055v30.397v3.207v30.397v208c0,8.837-7.164,16-16,16h-16v-16v-208
				v-30.397v-3.207v-30.397v-48v-16h16c8.836,0,16,7.163,16,16V339.055z"/>
			<polygon class="st3" points="416,294.352 416,358.352 512,358.352 512,690.352 576,690.352 576,294.352 			"/>
		</g>
	</g>
</g>
</svg>
