<?xml version="1.0" encoding="utf-8"?>
<!-- Generator: Adobe Illustrator 25.4.1, SVG Export Plug-In . SVG Version: 6.00 Build 0)  -->
<svg version="1.1" xmlns="http://www.w3.org/2000/svg" xmlns:xlink="http://www.w3.org/1999/xlink" x="0px" y="0px"
	 viewBox="0 0 2348 860" style="enable-background:new 0 0 2348 860;" xml:space="preserve">
<style type="text/css">
	.st0{display:none;}
	.st1{display:inline;fill:#141428;}
	.st2{fill:#FFFFFF;}
	.st3{fill:#141428;}
	.st4{fill:#D1FF52;}
	.st5{fill:#0A0A0A;}
	.st6{fill:#BEEB00;}
	.st7{fill:#A9ADB1;}
</style>
<g id="BG" class="st0">
</g>
<g id="Layer_1">
	<g>
		<g>
			<polygon class="st3" points="1030,345.69 1030,409.69 1126,409.69 1126,741.69 1190,741.69 1190,345.69 			"/>
			<polygon class="st3" points="1306,261.69 1306,453.69 1274,453.69 1274,261.69 1210,261.69 1210,741.69 1274,741.69 1274,517.69 
				1306,517.69 1306,741.69 1370,741.69 1370,261.69 			"/>
			<rect x="1390" y="421.69" class="st3" width="64" height="64"/>
			<rect x="1390" y="505.69" class="st3" width="64" height="236"/>
			<polygon class="st3" points="1602,345.69 1538,457.69 1538,261.691 1474,261.691 1474,741.69 1538,741.69 1538,569.69 
				1602,457.69 1602,741.69 1666,741.69 1666,345.69 			"/>
			<path class="st3" d="M1750,341.69L1750,341.69c0-8.837,7.163-16,16-16h112v-64h-112c-5.48,0-10.83,0.554-16,1.603
				c-31.346,6.363-56.034,31.051-62.396,62.397c-1.05,5.17-1.604,10.52-1.604,16v320c0,5.48,0.554,10.83,1.604,16
				c6.362,31.345,31.051,56.034,62.396,62.397c5.17,1.05,10.52,1.603,16,1.603h32c5.479,0,10.83-0.554,16-1.603
				c31.345-6.363,56.033-31.051,62.396-62.397c1.05-5.17,1.604-10.52,1.604-16v-156h-64v156c0,8.837-7.164,16-16,16h-32
				c-8.837,0-16-7.163-16-16V341.69z"/>
			<path class="st3" d="M2088.397,485.69H2090v-48c0-5.48-0.554-10.83-1.604-16c-6.363-31.345-31.051-56.034-62.396-62.397
				c-5.17-1.05-10.521-1.603-16-1.603h-32c-5.48,0-10.83,0.554-16,1.603c-31.346,6.363-56.034,31.051-62.397,62.397
				c-1.049,5.17-1.603,10.52-1.603,16v64c0,5.48,0.554,10.83,1.603,16c2.4,11.823,7.408,22.697,14.396,32
				c5.816,7.743,13.015,14.38,21.214,19.582c8.068,5.119,17.104,8.849,26.787,10.814c5.17,1.05,10.52,1.603,16,1.603h32
				c8.836,0,15.999,7.163,16,15.999c0,0,0,0,0,0v0.001v64c0,0,0,0.001,0,0.001c0,8.836-7.164,15.999-16,15.999h-32
				c-8.836,0-16-7.163-16-15.999v-0.001v-48h-62.397H1898v48c0,5.48,0.554,10.83,1.603,16c6.363,31.345,31.051,56.034,62.397,62.397
				c5.17,1.05,10.52,1.603,16,1.603h32c5.479,0,10.83-0.554,16-1.603c31.345-6.363,56.033-31.051,62.396-62.397
				c1.049-5.17,1.604-10.52,1.604-16v-64c0-5.48-0.554-10.83-1.604-16c-2.4-11.823-7.408-22.697-14.396-32
				c-5.816-7.743-13.015-14.38-21.214-19.582c-8.068-5.119-17.104-8.849-26.786-10.814c-5.17-1.05-10.521-1.603-16-1.603h-32
				c-8.836,0-16-7.163-16-15.999v-0.001v-64v-0.001c0-8.836,7.164-15.999,16-15.999h32c8.836,0,15.999,7.163,16,15.999
				c0,0,0,0.001,0,0.001v48H2088.397z"/>
		</g>
		<path class="st3" d="M2248,419.69c-8.836,0-16-7.163-16-16v-78.397V241.69c0-44.183-35.817-80-80-80h-30v10.729v53.271h30
			c8.836,0,16,7.164,16,16v90.397v71.604c0,18.011,5.955,34.629,15.999,48c-10.044,13.371-15.999,29.989-15.999,48v71.603v90.397
			c0,8.837-7.164,16-16,16h-30v53.271v10.729h30c44.183,0,80-35.817,80-80v-83.604V499.69c0-8.837,7.164-16,16-16h20v-10.729
			v-42.542V419.69H2248z"/>
		<path class="st3" d="M100,483.69c8.836,0,16,7.163,16,16v78.397v83.604c0,44.183,35.817,80,80,80h30v-10.729V677.69h-30
			c-8.836,0-16-7.164-16-16v-90.397V499.69c0-18.011-5.955-34.629-15.999-48c10.044-13.371,15.999-29.989,15.999-48v-71.604V241.69
			c0-8.837,7.164-16,16-16h30v-53.271V161.69h-30c-44.183,0-80,35.817-80,80v83.604v78.396c0,8.837-7.164,16-16,16H80v10.729v42.542
			v10.729H100z"/>
		<g>
			<rect x="2026" y="161.69" class="st3" width="64" height="64"/>
			<rect x="1898" y="161.69" class="st3" width="64" height="64"/>
			
				<rect x="1962" y="225.69" transform="matrix(-1.836970e-16 1 -1 -1.836970e-16 2251.6902 -1736.3103)" class="st3" width="64" height="64"/>
			
				<rect x="1962" y="97.69" transform="matrix(-1.836970e-16 1 -1 -1.836970e-16 2123.6902 -1864.3102)" class="st3" width="64" height="64"/>
		</g>
		<g>
			<path class="st3" d="M416.396,225.69c-6.363-31.345-31.051-56.033-62.396-62.397c-5.17-1.05-10.52-1.603-16-1.603h-80v496h80
				c5.48,0,10.83-0.554,16-1.603c31.345-6.363,56.034-31.051,62.396-62.397c1.05-5.17,1.604-10.52,1.604-16v-336
				C418,236.21,417.446,230.86,416.396,225.69z M354,289.69v30.397v3.207v30.397v224c0,8.837-7.164,16-16,16h-16v-16v-224v-30.397
				v-3.207V289.69v-48v-16h16c8.836,0,16,7.163,16,16V289.69z"/>
			<path class="st3" d="M596.396,225.69c-6.363-31.345-31.051-56.034-62.396-62.397c-5.17-1.05-10.52-1.603-16-1.603
				s-10.83,0.554-16,1.603c-31.345,6.363-56.034,31.051-62.396,62.397c-1.05,5.17-1.604,10.52-1.604,16v252
				c0,5.48,0.554,10.83,1.604,16c6.363,31.345,31.051,56.033,62.396,62.397c5.17,1.05,10.52,1.603,16,1.603s10.83-0.554,16-1.603
				c31.345-6.363,56.034-31.051,62.396-62.397c1.05-5.17,1.604-10.52,1.604-16v-252C598,236.21,597.446,230.86,596.396,225.69z
				 M534,289.69v204c0,8.837-7.164,16-16,16s-16-7.163-16-16v-204v-47.999c0-8.837,7.164-16,16-16s16,7.163,16,16V289.69z"/>
			<rect x="618" y="77.69" class="st3" width="64" height="64"/>
			<rect x="618" y="161.69" class="st3" width="64" height="572"/>
			<polygon class="st3" points="766,273.69 766,161.69 702,161.69 702,573.69 766,573.69 766,401.69 830,273.69 830,657.69 
				894,657.69 894,161.69 830,161.69 			"/>
			<path class="st3" d="M978,325.69L978,325.69c0-8.837,7.163-16,16-16h112v-64H994c-5.48,0-10.83,0.554-16,1.603
				c-31.346,6.363-56.034,31.051-62.396,62.397c-1.05,5.17-1.604,10.52-1.604,16v380c0,5.48,0.554,10.83,1.604,16
				c6.362,31.345,31.051,56.034,62.396,62.397c5.17,1.05,10.52,1.603,16,1.603h32c5.479,0,10.83-0.554,16-1.603
				c31.345-6.363,56.033-31.051,62.396-62.397c1.05-5.17,1.604-10.52,1.604-16v-156h-64v156c0,8.837-7.164,16-16,16h-32
				c-8.837,0-16-7.163-16-16V325.69z"/>
		</g>
	</g>
</g>
</svg>
