<?xml version="1.0" encoding="utf-8"?>
<!-- Generator: Adobe Illustrator 25.4.1, SVG Export Plug-In . SVG Version: 6.00 Build 0)  -->
<svg version="1.1" xmlns="http://www.w3.org/2000/svg" xmlns:xlink="http://www.w3.org/1999/xlink" x="0px" y="0px"
	 viewBox="0 0 1400 1200" style="enable-background:new 0 0 1400 1200;" xml:space="preserve">
<style type="text/css">
	.st0{display:none;}
	.st1{display:inline;fill:#141428;}
	.st2{fill:#FFFFFF;}
	.st3{fill:#141428;}
	.st4{fill:#D1FF52;}
	.st5{fill:#0A0A0A;}
	.st6{fill:#BEEB00;}
	.st7{fill:#A9ADB1;}
</style>
<g id="BG" class="st0">
</g>
<g id="Layer_1">
	<g>
		<g>
			<polygon class="st3" points="263,734 263,798 359,798 359,1130 423,1130 423,734 			"/>
			<polygon class="st3" points="539,650 539,842 507,842 507,650 443,650 443,1130 507,1130 507,906 539,906 539,1130 603,1130 
				603,650 			"/>
			<g>
				<rect x="623" y="810" class="st4" width="64" height="64"/>
			</g>
			<rect x="623" y="894" class="st3" width="64" height="236"/>
			<polygon class="st3" points="835,734 771,846 771,650 707,650 707,1130 771,1130 771,958 835,846 835,1130 899,1130 899,734 			
				"/>
			<path class="st3" d="M983,730L983,730c0-8.837,7.163-16,16-16h112v-64H999c-5.48,0-10.83,0.554-16,1.603
				c-31.346,6.363-56.034,31.051-62.396,62.397c-1.05,5.17-1.604,10.52-1.604,16v320c0,5.48,0.554,10.83,1.604,16
				c6.362,31.345,31.051,56.033,62.396,62.397c5.17,1.05,10.52,1.603,16,1.603h32c5.479,0,10.83-0.554,16-1.603
				c31.345-6.363,56.033-31.051,62.396-62.397c1.05-5.17,1.604-10.52,1.604-16V894h-64v156c0,8.837-7.164,16-16,16h-32
				c-8.837,0-16-7.163-16-16V730z"/>
			<path class="st3" d="M1321.396,874H1323v-48c0-5.48-0.554-10.83-1.604-16c-6.363-31.345-31.051-56.034-62.396-62.397
				c-5.17-1.05-10.521-1.603-16-1.603h-32c-5.48,0-10.83,0.554-16,1.603c-31.346,6.363-56.034,31.051-62.397,62.397
				c-1.049,5.17-1.603,10.52-1.603,16v64c0,5.48,0.554,10.83,1.603,16c2.4,11.823,7.408,22.697,14.396,32
				c5.816,7.743,13.015,14.38,21.214,19.582c8.068,5.119,17.104,8.849,26.787,10.814c5.17,1.05,10.52,1.603,16,1.603h32
				c8.836,0,15.999,7.163,16,15.999c0,0,0,0,0,0V986v64c0,0,0,0.001,0,0.001c0,8.836-7.164,15.999-16,15.999h-32
				c-8.836,0-16-7.163-16-15.999V1050v-48h-62.397H1131v48c0,5.48,0.554,10.83,1.603,16c6.363,31.345,31.051,56.033,62.397,62.397
				c5.17,1.05,10.52,1.603,16,1.603h32c5.479,0,10.83-0.554,16-1.603c31.345-6.363,56.033-31.051,62.396-62.397
				c1.049-5.17,1.604-10.52,1.604-16v-64c0-5.48-0.554-10.83-1.604-16c-2.4-11.823-7.408-22.697-14.396-32
				c-5.816-7.743-13.015-14.38-21.214-19.582c-8.068-5.119-17.104-8.849-26.786-10.814c-5.17-1.05-10.521-1.603-16-1.603h-32
				c-8.836,0-16-7.163-16-15.999V890v-64v-0.001c0-8.836,7.164-15.999,16-15.999h32c8.836,0,15.999,7.163,16,15.999
				c0,0,0,0.001,0,0.001v48H1321.396z"/>
		</g>
		<g>
			<path class="st3" d="M421.396,282c-6.363-31.345-31.051-56.034-62.396-62.397c-5.17-1.05-10.52-1.603-16-1.603h-80v496h80
				c5.48,0,10.83-0.554,16-1.603c31.345-6.363,56.034-31.051,62.396-62.397c1.05-5.17,1.604-10.52,1.604-16V298
				C423,292.52,422.446,287.17,421.396,282z M359,346v30.397v3.207V410v224c0,8.837-7.164,16-16,16h-16v-16V410v-30.397v-3.207V346
				v-48v-16h16c8.836,0,16,7.163,16,16V346z"/>
			<path class="st3" d="M601.396,282c-6.363-31.345-31.051-56.034-62.396-62.397c-5.17-1.05-10.52-1.603-16-1.603
				s-10.83,0.554-16,1.603c-31.345,6.363-56.034,31.051-62.396,62.397c-1.05,5.17-1.604,10.52-1.604,16v252
				c0,5.48,0.554,10.83,1.604,16c6.363,31.345,31.051,56.034,62.396,62.397c5.17,1.05,10.52,1.603,16,1.603s10.83-0.554,16-1.603
				c31.345-6.363,56.034-31.051,62.396-62.397c1.05-5.17,1.604-10.52,1.604-16V298C603,292.52,602.446,287.17,601.396,282z M539,346
				v204c0,8.837-7.164,16-16,16s-16-7.163-16-16V346v-47.999c0-8.837,7.164-16,16-16s16,7.163,16,16V346z"/>
			<g>
				<rect x="623" y="134" class="st4" width="64" height="64"/>
			</g>
			<g>
				<rect x="623" y="218" class="st3" width="64" height="572"/>
				<polygon class="st3" points="771,330 771,218 707,218 707,630.001 771,630.001 771,458 835,330 835,714 899,714 899,218 
					835,218 				"/>
				<path class="st3" d="M1047,746v16v0c0,0.199-0.023,0.393-0.03,0.59c-0.033,0.897-0.12,1.781-0.295,2.634
					c-0.077,0.374-0.181,0.736-0.283,1.1c-0.04,0.143-0.067,0.292-0.111,0.434c-1.452,4.668-4.991,8.404-9.519,10.155
					c-1.79,0.692-3.728,1.087-5.762,1.087h-28v64h28c5.479,0,10.83-0.554,16-1.604c31.345-6.363,56.033-31.051,62.396-62.396
					c1.05-5.17,1.604-10.52,1.604-16v0v-16v-12h-64V746z"/>
				<path class="st3" d="M999,302c-5.48,0-10.83,0.554-16,1.603c-31.346,6.363-56.034,31.051-62.396,62.397
					c-1.05,5.17-1.604,10.52-1.604,16v287.994c15.207-20.241,37.917-34.519,64-38.714V382v-0.001c0-8.836,7.163-15.999,16-15.999
					h112v-64H999z"/>
			</g>
		</g>
		<g>
			<path class="st4" d="M1277,392c-8.836,0-16-7.163-16-16v-78.397V214c0-44.183-35.817-80-80-80h-30v10.729V198h30
				c8.836,0,16,7.164,16,16v90.397V376c0,18.011,5.955,34.629,15.999,48c-10.044,13.371-15.999,29.989-15.999,48v71.603V634
				c0,8.837-7.164,16-16,16h-30v53.271V714h30c44.183,0,80-35.817,80-80v-83.604V472c0-8.837,7.164-16,16-16h20v-10.729v-42.542V392
				H1277z"/>
		</g>
		<g>
			<rect x="1047" y="134" class="st4" width="64" height="64"/>
		</g>
		<g>
			<rect x="919" y="134" class="st4" width="64" height="64"/>
		</g>
		<g>
			<rect x="983" y="198" class="st4" width="64" height="64"/>
		</g>
		<g>
			<rect x="983" y="70" class="st4" width="64" height="64"/>
		</g>
		<g>
			<path class="st4" d="M97,872c8.836,0,16,7.163,16,16v78.397V1050c0,44.183,35.817,80,80,80h30v-10.729V1066h-30
				c-8.836,0-16-7.164-16-16v-90.397V888c0-18.011-5.955-34.629-15.999-48C171.045,826.629,177,810.011,177,792v-71.604V630
				c0-8.837,7.164-16,16-16h30v-53.271V550h-30c-44.183,0-80,35.817-80,80v83.604V792c0,8.837-7.164,16-16,16H77v10.729v42.542V872
				H97z"/>
		</g>
	</g>
</g>
</svg>
