<?xml version="1.0" encoding="utf-8"?>
<!-- Generator: Adobe Illustrator 25.4.1, SVG Export Plug-In . SVG Version: 6.00 Build 0)  -->
<svg version="1.1" xmlns="http://www.w3.org/2000/svg" xmlns:xlink="http://www.w3.org/1999/xlink" x="0px" y="0px"
	 viewBox="0 0 2000 2000" style="enable-background:new 0 0 2000 2000;" xml:space="preserve">
<style type="text/css">
	.st0{display:none;}
	.st1{display:inline;fill:#141428;}
	.st2{fill:#141428;}
	.st3{fill:#FFFFFF;}
	.st4{fill:#D1FF52;}
	.st5{fill:#0A0A0A;}
	.st6{fill:#BEEB00;}
	.st7{fill:#A9ADB1;}
</style>
<g id="BG" class="st0">
	<rect x="-553.452" y="-2497.552" class="st1" width="10368" height="3307.564"/>
</g>
<g id="Layer_1">
	<g>
		<g>
			<polygon class="st3" points="563,1134 563,1198 659,1198 659,1530 723,1530 723,1134 			"/>
			<polygon class="st3" points="839,1050 839,1242 807,1242 807,1050 743,1050 743,1530 807,1530 807,1306 839,1306 839,1530 
				903,1530 903,1050 			"/>
			<rect x="923" y="1210" class="st3" width="64" height="64"/>
			<rect x="923" y="1294" class="st3" width="64" height="236"/>
			<polygon class="st3" points="1135,1134 1071,1246 1071,1050 1007,1050 1007,1530 1071,1530 1071,1358 1135,1246 1135,1530 
				1199,1530 1199,1134 			"/>
			<path class="st3" d="M1283,1130L1283,1130c0-8.837,7.163-16,16-16h112v-64h-112c-5.48,0-10.83,0.554-16,1.603
				c-31.346,6.363-56.034,31.051-62.396,62.397c-1.05,5.17-1.604,10.52-1.604,16v320c0,5.48,0.554,10.83,1.604,16
				c6.362,31.345,31.051,56.033,62.396,62.397c5.17,1.05,10.52,1.603,16,1.603h32c5.479,0,10.83-0.554,16-1.603
				c31.345-6.363,56.033-31.051,62.396-62.397c1.05-5.17,1.604-10.52,1.604-16v-156h-64v156c0,8.837-7.164,16-16,16h-32
				c-8.837,0-16-7.163-16-16V1130z"/>
			<path class="st3" d="M1621.396,1274H1623v-48c0-5.48-0.554-10.83-1.604-16c-6.363-31.345-31.051-56.034-62.396-62.397
				c-5.17-1.05-10.521-1.603-16-1.603h-32c-5.48,0-10.83,0.554-16,1.603c-31.346,6.363-56.034,31.051-62.397,62.397
				c-1.049,5.17-1.603,10.52-1.603,16v64c0,5.48,0.554,10.83,1.603,16c2.4,11.823,7.408,22.697,14.396,32
				c5.816,7.743,13.015,14.38,21.214,19.582c8.068,5.119,17.104,8.849,26.787,10.814c5.17,1.05,10.52,1.603,16,1.603h32
				c8.836,0,15.999,7.163,16,15.999c0,0,0,0,0,0V1386v64c0,0,0,0.001,0,0.001c0,8.836-7.164,15.999-16,15.999h-32
				c-8.836,0-16-7.163-16-15.999V1450v-48h-62.397H1431v48c0,5.48,0.554,10.83,1.603,16c6.363,31.345,31.051,56.033,62.397,62.397
				c5.17,1.05,10.52,1.603,16,1.603h32c5.479,0,10.83-0.554,16-1.603c31.345-6.363,56.033-31.051,62.396-62.397
				c1.049-5.17,1.604-10.52,1.604-16v-64c0-5.48-0.554-10.83-1.604-16c-2.4-11.823-7.408-22.697-14.396-32
				c-5.816-7.743-13.015-14.38-21.214-19.582c-8.068-5.119-17.104-8.849-26.786-10.814c-5.17-1.05-10.521-1.603-16-1.603h-32
				c-8.836,0-16-7.163-16-15.999V1290v-64v-0.001c0-8.836,7.164-15.999,16-15.999h32c8.836,0,15.999,7.163,16,15.999
				c0,0,0,0.001,0,0.001v48H1621.396z"/>
		</g>
		<g>
			<path class="st3" d="M721.396,682c-6.363-31.345-31.051-56.034-62.396-62.397c-5.17-1.05-10.52-1.603-16-1.603h-80v496h80
				c5.48,0,10.83-0.554,16-1.603c31.345-6.363,56.034-31.051,62.396-62.397c1.05-5.17,1.604-10.52,1.604-16V698
				C723,692.52,722.446,687.17,721.396,682z M659,746v30.397v3.207V810v224c0,8.837-7.164,16-16,16h-16v-16V810v-30.397v-3.207V746
				v-48v-16h16c8.836,0,16,7.163,16,16V746z"/>
			<path class="st3" d="M901.396,682c-6.363-31.345-31.051-56.034-62.396-62.397c-5.17-1.05-10.52-1.603-16-1.603
				s-10.83,0.554-16,1.603c-31.345,6.363-56.034,31.051-62.396,62.397c-1.05,5.17-1.604,10.52-1.604,16v252
				c0,5.48,0.554,10.83,1.604,16c6.363,31.345,31.051,56.034,62.396,62.397c5.17,1.05,10.52,1.603,16,1.603s10.83-0.554,16-1.603
				c31.345-6.363,56.034-31.051,62.396-62.397c1.05-5.17,1.604-10.52,1.604-16V698C903,692.52,902.446,687.17,901.396,682z M839,746
				v204c0,8.837-7.164,16-16,16s-16-7.163-16-16V746v-47.999c0-8.837,7.164-16,16-16s16,7.163,16,16V746z"/>
			<rect x="923" y="534" class="st3" width="64" height="64"/>
			<g>
				<rect x="923" y="618" class="st3" width="64" height="572"/>
				<polygon class="st3" points="1071,730 1071,618 1007,618 1007,1030 1071,1030 1071,858 1135,730 1135,1114 1199,1114 1199,618 
					1135,618 				"/>
				<path class="st3" d="M1347,1146v16v0c0,0.199-0.023,0.393-0.03,0.59c-0.033,0.897-0.12,1.781-0.295,2.634
					c-0.077,0.374-0.181,0.736-0.283,1.1c-0.04,0.143-0.067,0.292-0.111,0.434c-1.452,4.668-4.991,8.404-9.519,10.155
					c-1.79,0.692-3.728,1.087-5.762,1.087h-28v64h28c5.479,0,10.83-0.554,16-1.604c31.345-6.363,56.033-31.051,62.396-62.396
					c1.05-5.17,1.604-10.52,1.604-16v0v-16v-12h-64V1146z"/>
				<path class="st3" d="M1299,702c-5.48,0-10.83,0.554-16,1.603c-31.346,6.363-56.034,31.051-62.396,62.397
					c-1.05,5.17-1.604,10.52-1.604,16v287.994c15.207-20.241,37.917-34.519,64-38.714V782v-0.001c0-8.836,7.163-15.999,16-15.999
					h112v-64H1299z"/>
			</g>
		</g>
		<path class="st3" d="M1577,792c-8.836,0-16-7.163-16-16v-78.397V614c0-44.183-35.817-80-80-80h-30v10.729V598h30
			c8.836,0,16,7.164,16,16v90.397V776c0,18.011,5.955,34.629,15.999,48c-10.044,13.371-15.999,29.989-15.999,48v71.604V1034
			c0,8.837-7.164,16-16,16h-30v53.271V1114h30c44.183,0,80-35.817,80-80v-83.604V872c0-8.837,7.164-16,16-16h20v-10.729v-42.542V792
			H1577z"/>
		<rect x="1347" y="534" class="st3" width="64" height="64"/>
		<rect x="1219" y="534" class="st3" width="64" height="64"/>
		<rect x="1283" y="598" transform="matrix(-1.836970e-16 1 -1 -1.836970e-16 1945 -685)" class="st3" width="64" height="64"/>
		<rect x="1283" y="470" transform="matrix(-1.836970e-16 1 -1 -1.836970e-16 1817 -813)" class="st3" width="64" height="64"/>
		<path class="st3" d="M397,1272c8.836,0,16,7.163,16,16v78.397V1450c0,44.183,35.817,80,80,80h30v-10.729V1466h-30
			c-8.836,0-16-7.164-16-16v-90.397V1288c0-18.011-5.955-34.629-15.999-48c10.044-13.371,15.999-29.989,15.999-48v-71.604V1030
			c0-8.837,7.164-16,16-16h30v-53.271V950h-30c-44.183,0-80,35.817-80,80v83.604V1192c0,8.837-7.164,16-16,16h-20v10.729v42.542
			V1272H397z"/>
	</g>
</g>
</svg>
