<?xml version="1.0" encoding="utf-8"?>
<!-- Generator: Adobe Illustrator 25.4.1, SVG Export Plug-In . SVG Version: 6.00 Build 0)  -->
<svg version="1.1" id="Pimsle_-_logo" xmlns="http://www.w3.org/2000/svg" xmlns:xlink="http://www.w3.org/1999/xlink" x="0px"
	 y="0px" viewBox="0 0 2380 525" style="enable-background:new 0 0 2380 525;" xml:space="preserve">
<style type="text/css">
	.st0{display:none;}
	.st1{fill:#141428;}
	.st2{fill:#F01455;}
	.st3{fill:#3C3C3C;}
	.st4{fill:#D7324B;}
</style>
<g>
	<g>
		<rect x="1672.65" y="34.65" class="st1" width="51.04" height="340.34"/>
		<rect x="972.38" y="107.6" class="st1" width="51.06" height="267.39"/>
		<rect x="972.38" y="34.65" class="st1" width="51.07" height="39.68"/>
		<path class="st1" d="M716.49,346.45v134.84h-51.05V107.75h51.05v28.56c22.71-17.9,51.39-28.56,82.58-28.56
			c73.79,0,133.62,59.82,133.62,133.62c0,73.81-59.83,133.62-133.62,133.62C767.88,374.99,739.2,364.32,716.49,346.45z
			 M799.07,158.78c-45.62,0-82.58,36.99-82.58,82.59c0,45.61,36.97,82.6,82.58,82.6c45.59,0,82.56-36.99,82.56-82.6
			C881.63,195.77,844.67,158.78,799.07,158.78z"/>
		<path class="st1" d="M1615.29,244.64c-5.08-4.14-10.75-7.4-16.94-9.26l-39.46-11.56l-18.9-5.55l-44.79-13.13
			c-10.88-6.56-12.29-25.47-0.03-37.24c11.3-5.81,24.06-9.14,37.65-9.14c27.47,0,48.54,13.47,63.56,34.09l41.24-29.96
			c-24.31-33.38-60.36-55.16-104.79-55.16c-22.15,0-42.98,5.48-61.37,15c-57.73,35.29-50.64,90.74-21.13,114.77
			c5.08,4.13,10.74,7.39,16.93,9.26l39.49,11.56l18.9,5.55l44.79,13.13c10.88,6.56,12.29,26.04,0.06,37.79
			c-11.31,5.82-24.09,9.16-37.69,9.16c-27.47,0-48.56-13.46-63.58-34.08L1428,319.83c24.29,33.38,60.37,55.18,104.79,55.18
			c22.2,0,43.08-5.51,61.47-15.06C1651.88,324.64,1644.78,268.61,1615.29,244.64z"/>
		<path class="st1" d="M1958.77,349.45c0-12.79,5.2-24.38,13.56-32.77l-16.94-16.96c-14.96,14.95-35.62,24.21-58.43,24.21
			c-36.68,0-67.78-23.95-78.54-57.05h157.1h52.64c1.58-8.24,2.43-16.81,2.43-25.54c0-73.78-59.81-133.59-133.63-133.59
			c-73.8,0-133.6,59.81-133.6,133.59c0,73.82,59.8,133.65,133.6,133.65c22.72,0,44.12-5.7,62.86-15.73
			C1959.16,356.09,1958.77,352.81,1958.77,349.45z M1897,158.77c36.7,0,67.81,23.94,78.55,57.03l-157.1,0.03
			C1829.2,182.71,1860.32,158.77,1897,158.77z"/>
		
			<ellipse transform="matrix(0.2298 -0.9732 0.9732 0.2298 1204.295 2220.6123)" class="st1" cx="2005.08" cy="349.46" rx="25.53" ry="25.53"/>
		<path class="st1" d="M1392.88,199.95c0-51.02-41.36-92.35-92.32-92.35c-26.33,0-50,11.06-66.84,28.72
			c-16.82-17.66-40.5-28.72-66.82-28.72c-14.86,0-28.86,3.6-41.31,9.84v-9.83h-51.05v267.38h51.05v-92.55v-82.49
			c0-22.81,18.5-41.31,41.31-41.31c22.75,0,41.21,18.42,41.29,41.16c0,0.06,0,0.1,0,0.15c0,0.06,0,0.1,0,0.16
			c0,0.1,0.01,0.18,0.01,0.29v82.04v92.55h51.07v-92.52v-82.09v-0.43h-0.03c0-0.04-0.02-0.07-0.02-0.12
			c0.07-22.75,18.54-41.19,41.31-41.19c22.79,0,41.3,18.5,41.3,41.31v82.49v92.55h51.06V199.95H1392.88z"/>
		<g>
			<path class="st1" d="M2122.6,283.24c-5.41-2.29-11.02-3.4-16.84-3.4c-7.98,0-15.27,1.9-21.91,5.74
				c-6.64,3.85-11.91,9.07-15.8,15.71c-3.891,6.64-5.83,13.92-5.83,21.81c0,7.85,1.939,15.1,5.83,21.7
				c3.89,6.57,9.16,11.83,15.8,15.69c6.64,3.9,13.95,5.83,21.91,5.83c5.689,0,11.27-1.09,16.68-3.33
				c5.41-2.21,10.22-5.26,14.45-9.22l6.2,6.64c-5.13,4.73-10.99,8.47-17.56,11.23c-6.59,2.72-13.33,4.13-20.21,4.13
				c-9.76,0-18.71-2.35-26.88-7.08c-8.17-4.74-14.64-11.13-19.41-19.21c-4.77-8.07-7.16-16.87-7.16-26.43
				c0-9.55,2.41-18.32,7.25-26.28c4.8-7.99,11.35-14.3,19.57-18.96c8.2-4.69,17.19-7.01,26.93-7.01c6.97,0,13.72,1.31,20.21,3.91
				c6.48,2.62,12.21,6.22,17.11,10.84l-6.04,7.11C2132.79,288.65,2128.01,285.52,2122.6,283.24z"/>
			<path class="st1" d="M2232.54,277.86c8.22,4.67,14.74,10.98,19.55,18.96c4.81,7.97,7.25,16.72,7.25,26.29
				c0,9.55-2.42,18.34-7.25,26.43c-4.81,8.07-11.33,14.47-19.55,19.2c-8.21,4.73-17.26,7.08-27.09,7.08s-18.87-2.35-27.09-7.08
				c-8.2-4.73-14.74-11.13-19.55-19.2c-4.83-8.09-7.26-16.88-7.26-26.43c0-9.57,2.41-18.32,7.26-26.29
				c4.8-7.99,11.34-14.3,19.55-18.96c8.22-4.68,17.26-7.01,27.09-7.01C2215.3,270.85,2224.33,273.18,2232.54,277.86z
				 M2183.75,285.74c-6.68,3.86-12.01,9.06-15.95,15.63c-3.94,6.6-5.9,13.84-5.9,21.73c0,7.85,1.96,15.14,5.9,21.86
				c3.96,6.69,9.27,11.97,15.95,15.85c6.68,3.9,13.96,5.84,21.86,5.84c7.77,0,14.98-1.94,21.62-5.84
				c6.64-3.88,11.93-9.16,15.87-15.85c3.94-6.72,5.9-13.98,5.9-21.86c0-7.89-1.96-15.13-5.9-21.73c-3.94-6.57-9.23-11.8-15.87-15.63
				c-6.64-3.83-13.85-5.74-21.62-5.74C2197.72,280,2190.43,281.92,2183.75,285.74z"/>
			<path class="st1" d="M2274.13,271.58h12.71l40.45,77.5l40-77.5H2380v103.34h-9.45l-0.14-89.18l-40.45,78.1h-5.63l-40.61-78.1
				v89.18h-9.59L2274.13,271.58L2274.13,271.58z"/>
		</g>
	</g>
	<g>
		<path class="st2" d="M337.5,0C233.947,0,150,83.947,150,187.5V225v75h-37.5C50.368,300,0,350.368,0,412.5S50.368,525,112.5,525
			S225,474.632,225,412.5V375h75h37.5C441.053,375,525,291.053,525,187.499S441.053,0,337.5,0z M150,412.5
			c0,20.71-16.79,37.5-37.5,37.5C91.789,450,75,433.21,75,412.5c0-20.711,16.789-37.5,37.5-37.5H150V412.5z M337.5,300H300h-75v-75
			v-37.5C225,125.368,275.368,75,337.5,75S450,125.367,450,187.499C450,249.632,399.632,300,337.5,300z"/>
		<path class="st2" d="M337.5,145c-23.472,0-42.5,19.028-42.5,42.5V230h42.5c23.472,0,42.5-19.028,42.5-42.5
			C380,164.028,360.972,145,337.5,145z"/>
	</g>
</g>
</svg>
