<?xml version="1.0" encoding="utf-8"?>
<!-- Generator: Adobe Illustrator 25.4.1, SVG Export Plug-In . SVG Version: 6.00 Build 0)  -->
<svg version="1.1" id="Pimsle_-_logo" xmlns="http://www.w3.org/2000/svg" xmlns:xlink="http://www.w3.org/1999/xlink" x="0px"
	 y="0px" viewBox="0 0 625 625" style="enable-background:new 0 0 625 625;" xml:space="preserve">
<style type="text/css">
	.st0{display:none;}
	.st1{fill:#141428;}
	.st2{fill:#F01455;}
	.st3{fill:#3C3C3C;}
	.st4{fill:#D7324B;}
</style>
<g>
	<g>
		<path class="st2" d="M387.5,50C283.947,50,200,133.947,200,237.5V275v75h-37.5C100.368,350,50,400.368,50,462.5
			S100.368,575,162.5,575S275,524.632,275,462.5V425h75h37.5C491.053,425,575,341.053,575,237.499S491.053,50,387.5,50z M200,462.5
			c0,20.71-16.79,37.5-37.5,37.5c-20.711,0-37.5-16.79-37.5-37.5c0-20.711,16.789-37.5,37.5-37.5H200V462.5z M387.5,350H350h-75v-75
			v-37.5c0-62.132,50.368-112.5,112.5-112.5S500,175.367,500,237.499C500,299.632,449.632,350,387.5,350z"/>
		<path class="st2" d="M387.5,195c-23.472,0-42.5,19.028-42.5,42.5V280h42.5c23.472,0,42.5-19.028,42.5-42.5
			C430,214.028,410.972,195,387.5,195z"/>
	</g>
</g>
</svg>
