<?xml version="1.0" encoding="utf-8"?>
<!-- Generator: Adobe Illustrator 25.4.1, SVG Export Plug-In . SVG Version: 6.00 Build 0)  -->
<svg version="1.1" id="Pimsle_-_logo" xmlns="http://www.w3.org/2000/svg" xmlns:xlink="http://www.w3.org/1999/xlink" x="0px"
	 y="0px" viewBox="0 0 525 525" style="enable-background:new 0 0 525 525;" xml:space="preserve">
<style type="text/css">
	.st0{display:none;}
	.st1{fill:#141428;}
	.st2{fill:#F01455;}
	.st3{fill:#3C3C3C;}
	.st4{fill:#D7324B;}
</style>
<g>
	<g>
		<path class="st2" d="M337.5,0C233.947,0,150,83.947,150,187.5V225v75h-37.5C50.368,300,0,350.368,0,412.5S50.368,525,112.5,525
			S225,474.632,225,412.5V375h75h37.5C441.053,375,525,291.053,525,187.499S441.053,0,337.5,0z M150,412.5
			c0,20.71-16.79,37.5-37.5,37.5C91.789,450,75,433.21,75,412.5c0-20.711,16.789-37.5,37.5-37.5H150V412.5z M337.5,300H300h-75v-75
			v-37.5C225,125.368,275.368,75,337.5,75S450,125.367,450,187.499C450,249.632,399.632,300,337.5,300z"/>
		<path class="st2" d="M337.5,145c-23.472,0-42.5,19.028-42.5,42.5V230h42.5c23.472,0,42.5-19.028,42.5-42.5
			C380,164.028,360.972,145,337.5,145z"/>
	</g>
</g>
</svg>
