<?xml version="1.0" encoding="utf-8"?>
<!-- Generator: Adobe Illustrator 25.4.1, SVG Export Plug-In . SVG Version: 6.00 Build 0)  -->
<svg version="1.1" id="Pimsle_-_logo" xmlns="http://www.w3.org/2000/svg" xmlns:xlink="http://www.w3.org/1999/xlink" x="0px"
	 y="0px" viewBox="0 0 800 800" style="enable-background:new 0 0 800 800;" xml:space="preserve">
<style type="text/css">
	.st0{display:none;}
	.st1{fill:#141428;}
	.st2{fill:#F01455;}
	.st3{fill:#3C3C3C;}
	.st4{fill:#D7324B;}
</style>
<g>
	<g>
		<path class="st2" d="M475,137.5c-103.553,0-187.5,83.947-187.5,187.5v37.5v75H250c-62.132,0-112.5,50.368-112.5,112.5
			S187.868,662.5,250,662.5S362.5,612.132,362.5,550v-37.5h75H475c103.553,0,187.5-83.947,187.5-187.501S578.553,137.5,475,137.5z
			 M287.5,550c0,20.71-16.79,37.5-37.5,37.5c-20.711,0-37.5-16.79-37.5-37.5c0-20.711,16.789-37.5,37.5-37.5h37.5V550z M475,437.5
			h-37.5h-75v-75V325c0-62.132,50.368-112.5,112.5-112.5s112.5,50.367,112.5,112.499C587.5,387.132,537.132,437.5,475,437.5z"/>
		<path class="st2" d="M475,282.5c-23.472,0-42.5,19.028-42.5,42.5v42.5H475c23.472,0,42.5-19.028,42.5-42.5
			C517.5,301.528,498.472,282.5,475,282.5z"/>
	</g>
</g>
</svg>
