<?xml version="1.0" encoding="UTF-8"?><svg id="Layer_1" xmlns="http://www.w3.org/2000/svg" viewBox="0 0 256 256"><polyline points="74 146 85 131 175 131 186 146" style="fill:none; stroke:#000; stroke-linecap:round; stroke-linejoin:round; stroke-width:5px;"/><polyline points="112.5 236 106 236 100 246 160 246 154 236 147.5 236" style="fill:none; stroke:#000; stroke-linecap:round; stroke-linejoin:round; stroke-width:5px;"/><line x1="122.5" y1="236" x2="122.5" y2="183.838" style="fill:none; stroke:#000; stroke-linecap:round; stroke-linejoin:round; stroke-width:5px;"/><line x1="137.5" y1="236" x2="137.5" y2="183.838" style="fill:none; stroke:#000; stroke-linecap:round; stroke-linejoin:round; stroke-width:5px;"/><line x1="74" y1="175.826" x2="74" y2="146" style="fill:none; stroke:#000; stroke-linecap:round; stroke-linejoin:round; stroke-width:5px;"/><line x1="186" y1="146" x2="186" y2="175.826" style="fill:none; stroke:#000; stroke-linecap:round; stroke-linejoin:round; stroke-width:5px;"/><path d="m85,149v26.826c5.625,0,5.791-4.371,11.25-4.371,5.459,0,5.625,4.371,11.25,4.371,5.625,0,5.791-4.371,11.25-4.371,5.459,0,5.625,4.371,11.25,4.371,5.625,0,5.791-4.371,11.25-4.371,5.459,0,5.625,4.371,11.25,4.371,5.625,0,5.791-4.371,11.25-4.371,5.459,0,5.625,4.371,11.25,4.371v-26.826h-90Z" style="fill:none; stroke:#d02149; stroke-linecap:round; stroke-linejoin:round; stroke-width:4px;"/><polygon points="45 206 45 146 54 131 54 191 45 206" style="fill:none; stroke:#000; stroke-linecap:round; stroke-linejoin:round; stroke-width:5px;"/><line x1="80.326" y1="246" x2="80.326" y2="206" style="fill:none; stroke:#000; stroke-linecap:round; stroke-linejoin:round; stroke-width:5px;"/><line x1="45" y1="206" x2="45" y2="246" style="fill:none; stroke:#000; stroke-linecap:round; stroke-linejoin:round; stroke-width:5px;"/><polygon points="80.326 206 89.326 191 54 191 45 206 80.326 206" style="fill:none; stroke:#000; stroke-linecap:round; stroke-linejoin:round; stroke-width:5px;"/><line x1="54" y1="206" x2="54" y2="231" style="fill:none; stroke:#000; stroke-linecap:round; stroke-linejoin:round; stroke-width:5px;"/><line x1="89.326" y1="231" x2="89.326" y2="191" style="fill:none; stroke:#000; stroke-linecap:round; stroke-linejoin:round; stroke-width:5px;"/><polygon points="215 206 215 146 206 131 206 191 215 206" style="fill:none; stroke:#000; stroke-linecap:round; stroke-linejoin:round; stroke-width:5px;"/><line x1="179.673" y1="246" x2="179.673" y2="206" style="fill:none; stroke:#000; stroke-linecap:round; stroke-linejoin:round; stroke-width:5px;"/><line x1="215" y1="206" x2="215" y2="246" style="fill:none; stroke:#000; stroke-linecap:round; stroke-linejoin:round; stroke-width:5px;"/><polygon points="179.673 206 170.673 191 206 191 215 206 179.673 206" style="fill:none; stroke:#000; stroke-linecap:round; stroke-linejoin:round; stroke-width:5px;"/><line x1="206" y1="206" x2="206" y2="231" style="fill:none; stroke:#000; stroke-linecap:round; stroke-linejoin:round; stroke-width:5px;"/><line x1="170.673" y1="231" x2="170.673" y2="191" style="fill:none; stroke:#000; stroke-linecap:round; stroke-linejoin:round; stroke-width:5px;"/><path d="m150.496,47.498c1.381,0,2.5-1.119,2.5-2.5s-1.119-2.5-2.5-2.5h-8.997c-1.381,0-2.5,1.119-2.5,2.5s1.119,2.5,2.5,2.5h8.997Z" style="fill:#d02149;"/><path d="m116.5,42.498h-11c-.499,0-.986.149-1.4.429-2.751,1.859-4.6,5.505-4.6,9.071s1.849,7.214,4.601,9.072c0,0,0,0,0,0,1.367.925,2.398,3.043,2.398,4.927s-1.031,4.004-2.398,4.928h-.001c-2.751,1.86-4.6,5.506-4.6,9.072,0,1.381,1.119,2.5,2.5,2.5s2.5-1.119,2.5-2.5c0-1.886,1.032-4.004,2.4-4.929.003-.002.005-.005.008-.007,2.746-1.86,4.592-5.501,4.592-9.064s-1.847-7.208-4.597-9.068c-.002-.001-.003-.003-.005-.004-1.368-.923-2.399-3.042-2.399-4.928,0-1.635.776-3.445,1.874-4.5h10.126c1.381,0,2.5-1.119,2.5-2.5s-1.119-2.5-2.5-2.5Z" style="fill:#d02149;"/><path d="m164,63.498h-16.5c-.499,0-.986.149-1.4.429-2.751,1.859-4.6,5.505-4.6,9.071s1.849,7.214,4.601,9.072c.429.289.915.428,1.396.428.803,0,1.591-.386,2.074-1.101.773-1.145.472-2.698-.673-3.472-1.368-.923-2.399-3.042-2.399-4.928,0-1.635.776-3.445,1.874-4.5h15.626c1.381,0,2.5-1.119,2.5-2.5s-1.119-2.5-2.5-2.5Z" style="fill:#d02149;"/><path d="m178.807,65.04c-.06-.15-.14-.29-.23-.43-.09-.141-.19-.261-.31-.381-.11-.109-.24-.22-.38-.31-.13-.09-.28-.17-.43-.23-.15-.06-.31-.109-.47-.14-.32-.07-.65-.07-.98,0-.15.03-.31.08-.46.14-.15.061-.3.141-.43.23-.14.09-.27.2-.39.31-.11.12-.22.24-.31.381-.09.14-.16.279-.23.43-.06.149-.11.31-.14.47-.03.16-.05.32-.05.49,0,.66.27,1.3.74,1.77.46.46,1.11.73,1.76.73.17,0,.33-.021.49-.05.16-.03.32-.08.47-.141.15-.069.3-.14.43-.229.14-.09.27-.2.38-.311.47-.47.73-1.109.73-1.77,0-.16-.01-.33-.04-.49-.04-.16-.08-.32-.15-.47Z" style="fill:#d02149;"/><path d="m192.497,21.498h-65.993c-.167,0-.334.017-.499.05-.075.015-.145.044-.218.066-.083.025-.168.043-.249.077-.155.064-.302.144-.439.237-2.751,1.86-4.599,5.504-4.599,9.07s1.849,7.214,4.601,9.072c0,0,0,0,0,0,1.367.926,2.398,3.043,2.398,4.927s-1.031,4.004-2.398,4.928h-.001c-2.751,1.86-4.6,5.506-4.6,9.072s1.849,7.214,4.601,9.072c0,0,0,0,0,0,1.367.925,2.398,3.043,2.398,4.927s-1.031,4.004-2.398,4.928h-.001c-2.751,1.86-4.6,5.506-4.6,9.072,0,2.708,1.849,7.214,4.601,9.072,0,0,0,0,0,0,1.367.925,2.398,3.043,2.398,4.927,0,.66.27,1.3.74,1.77.46.46,1.11.73,1.76.73.17,0,.33-.021.49-.05.16-.03.32-.08.47-.141.15-.069.3-.14.43-.229.14-.09.27-.2.38-.311.47-.47.73-1.109.73-1.77,0-3.565-1.847-7.208-4.597-9.069-.001,0-.003-.002-.004-.004-1.368-.923-2.399-3.042-2.399-4.928s1.032-4.004,2.4-4.929c.003-.002.005-.005.008-.007,2.746-1.86,4.592-5.501,4.592-9.064s-1.847-7.208-4.597-9.069c-.001,0-.003-.002-.004-.004-1.368-.923-2.399-3.042-2.399-4.928s1.032-4.004,2.4-4.929c.003-.002.005-.005.008-.007,2.746-1.86,4.592-5.501,4.592-9.064s-1.847-7.208-4.597-9.068c-.001-.001-.003-.003-.004-.004-1.368-.923-2.399-3.042-2.399-4.928,0-1.636.778-3.445,1.877-4.5h65.119c1.381,0,2.5-1.119,2.5-2.5s-1.119-2.5-2.5-2.5Z" style="fill:#d02149;"/></svg>