<?xml version="1.0" encoding="UTF-8"?><svg id="Layer_1" xmlns="http://www.w3.org/2000/svg" viewBox="0 0 256 256"><path d="m139.24,193.5h-29.5c-2.761,0-5,2.239-5,5s2.239,5,5,5h29.5c2.761,0,5-2.239,5-5s-2.239-5-5-5Z" style="fill:none; stroke:#d02149; stroke-linecap:round; stroke-linejoin:round; stroke-width:4px;"/><line x1="205.49" y1="236" x2="205.49" y2="126" style="fill:none; stroke:#d02149; stroke-linecap:round; stroke-linejoin:round; stroke-width:4px;"/><path d="m185.49,126h-30v17c0,1.657-1.343,3-3,3h-74c-1.657,0-3-1.343-3-3v-17h-30v110h139.507" style="fill:none; stroke:#d02149; stroke-linecap:round; stroke-linejoin:round; stroke-width:4px;"/><path d="m154.24,206c0,2.761-2.239,5-5,5h-47.5c-2.761,0-5-2.239-5-5v-15c0-8.284,6.716-15,15-15,2.681,0,5.192.712,7.37,1.944,3.667-4.246,9.079-6.944,15.13-6.944,11.046,0,20,8.954,20,20v15Z" style="fill:none; stroke:#d02149; stroke-linecap:round; stroke-linejoin:round; stroke-width:4px;"/><polyline points="215.49 226 215.49 66 188.267 66" style="fill:none; stroke:#000; stroke-linecap:round; stroke-linejoin:round; stroke-width:5px;"/><line x1="55.49" y1="66" x2="88.99" y2="66" style="fill:none; stroke:#000; stroke-linecap:round; stroke-linejoin:round; stroke-width:5px;"/><path d="m95.49,116h40c5.519,0,10,4.481,10,10v10h-60v-10c0-5.519,4.481-10,10-10Z" style="fill:none; stroke:#141428; stroke-linecap:round; stroke-linejoin:round; stroke-width:5px;"/><rect x="35.49" y="86" width="160" height="160" style="fill:none; stroke:#000; stroke-linecap:round; stroke-linejoin:round; stroke-width:5px;"/><path d="m150.497,47.498c1.381,0,2.5-1.119,2.5-2.5s-1.119-2.5-2.5-2.5h-8.997c-1.381,0-2.5,1.119-2.5,2.5s1.119,2.5,2.5,2.5h8.997Z" style="fill:#d02149;"/><path d="m178.807,65.04c-.06-.15-.14-.29-.23-.43-.09-.141-.19-.261-.31-.381-.11-.109-.24-.22-.38-.31-.13-.09-.28-.17-.43-.23-.15-.06-.31-.109-.47-.14-.32-.07-.65-.07-.98,0-.15.03-.31.08-.46.14-.15.061-.3.141-.43.23-.14.09-.27.2-.39.31-.11.12-.22.24-.31.381-.09.14-.16.279-.23.43-.06.149-.11.31-.14.47-.03.16-.05.32-.05.49,0,.66.27,1.3.74,1.77.46.46,1.11.73,1.76.73.17,0,.33-.021.49-.05.16-.03.32-.08.47-.141.15-.069.3-.14.43-.229.14-.09.27-.2.38-.311.47-.47.73-1.109.73-1.77,0-.16-.01-.33-.04-.49-.04-.16-.08-.32-.15-.47Z" style="fill:#d02149;"/><path d="m147.285,76c-.484-.923-.785-1.993-.785-3.002,0-1.635.776-3.445,1.874-4.5h15.626c1.381,0,2.5-1.119,2.5-2.5s-1.119-2.5-2.5-2.5h-16.5c-.499,0-.986.149-1.4.429-2.751,1.859-4.6,5.505-4.6,9.071,0,1.01.162,2.022.437,3.002h5.347Z" style="fill:#d02149;"/><path d="m192.497,21.498h-65.993c-.167,0-.334.017-.499.05-.075.015-.145.044-.218.066-.083.025-.168.043-.249.077-.155.064-.302.144-.439.237-2.751,1.86-4.599,5.504-4.599,9.07s1.849,7.214,4.601,9.072c0,0,0,0,0,0,1.367.926,2.398,3.043,2.398,4.927s-1.031,4.004-2.398,4.928h-.001c-2.751,1.86-4.6,5.506-4.6,9.072s1.849,7.214,4.601,9.072c0,0,0,0,0,0,1.367.925,2.398,3.043,2.398,4.927,0,1.009-.301,2.078-.785,3.002h5.347c.275-.98.438-1.992.438-3.002,0-3.565-1.847-7.208-4.597-9.069-.001,0-.003-.002-.004-.004-1.368-.923-2.399-3.042-2.399-4.928s1.032-4.004,2.4-4.929c.003-.002.005-.005.008-.007,2.746-1.86,4.592-5.501,4.592-9.064s-1.847-7.208-4.597-9.068c-.001-.001-.003-.003-.004-.004-1.368-.923-2.399-3.042-2.399-4.928,0-1.636.778-3.445,1.877-4.5h65.119c1.381,0,2.5-1.119,2.5-2.5s-1.119-2.5-2.5-2.5Z" style="fill:#d02149;"/><path d="m104.101,61.07s0,0,0,0c1.367.925,2.398,3.043,2.398,4.927s-1.031,4.004-2.398,4.928h-.001c-1.705,1.153-3.061,2.993-3.848,5.074h5.67c.296-.373.625-.692.978-.931.003-.002.005-.005.008-.007,2.746-1.86,4.592-5.501,4.592-9.064s-1.847-7.208-4.596-9.069c-.002,0-.003-.002-.005-.004-1.368-.923-2.399-3.042-2.399-4.928,0-1.635.776-3.445,1.874-4.5h10.126c1.381,0,2.5-1.119,2.5-2.5s-1.119-2.5-2.5-2.5h-11c-.499,0-.986.149-1.4.429-2.751,1.859-4.6,5.505-4.6,9.071s1.849,7.214,4.601,9.072Z" style="fill:#d02149;"/></svg>