<?xml version="1.0" encoding="UTF-8"?><svg id="Layer_1" xmlns="http://www.w3.org/2000/svg" viewBox="0 0 256 256"><path d="m150.496,47.498c1.381,0,2.5-1.119,2.5-2.5s-1.119-2.5-2.5-2.5h-8.997c-1.381,0-2.5,1.119-2.5,2.5s1.119,2.5,2.5,2.5h8.997Z" style="fill:#d02149;"/><path d="m116.5,42.498h-11c-.499,0-.986.149-1.4.429-2.751,1.859-4.6,5.505-4.6,9.071s1.849,7.214,4.601,9.072c0,0,0,0,0,0,1.367.925,2.398,3.043,2.398,4.927s-1.031,4.004-2.398,4.928h-.001c-2.751,1.86-4.6,5.506-4.6,9.072,0,1.381,1.119,2.5,2.5,2.5s2.5-1.119,2.5-2.5c0-1.886,1.032-4.004,2.4-4.929.003-.002.005-.005.008-.007,2.746-1.86,4.592-5.501,4.592-9.064s-1.847-7.208-4.597-9.068c-.002-.001-.003-.003-.005-.004-1.368-.923-2.399-3.042-2.399-4.928,0-1.635.776-3.445,1.874-4.5h10.126c1.381,0,2.5-1.119,2.5-2.5s-1.119-2.5-2.5-2.5Z" style="fill:#d02149;"/><path d="m164,63.498h-16.5c-.499,0-.986.149-1.4.429-2.751,1.859-4.6,5.505-4.6,9.071s1.849,7.214,4.601,9.072c.429.289.915.428,1.396.428.803,0,1.591-.386,2.074-1.101.773-1.145.472-2.698-.673-3.472-1.368-.923-2.399-3.042-2.399-4.928,0-1.635.776-3.445,1.874-4.5h15.626c1.381,0,2.5-1.119,2.5-2.5s-1.119-2.5-2.5-2.5Z" style="fill:#d02149;"/><path d="m178.807,65.04c-.06-.15-.14-.29-.23-.43-.09-.141-.19-.261-.31-.381-.11-.109-.24-.22-.38-.31-.13-.09-.28-.17-.43-.23-.15-.06-.31-.109-.47-.14-.32-.07-.65-.07-.98,0-.15.03-.31.08-.46.14-.15.061-.3.141-.43.23-.14.09-.27.2-.39.31-.11.12-.22.24-.31.381-.09.14-.16.279-.23.43-.06.149-.11.31-.14.47-.03.16-.05.32-.05.49,0,.66.27,1.3.74,1.77.46.46,1.11.73,1.76.73.17,0,.33-.021.49-.05.16-.03.32-.08.47-.141.15-.069.3-.14.43-.229.14-.09.27-.2.38-.311.47-.47.73-1.109.73-1.77,0-.16-.01-.33-.04-.49-.04-.16-.08-.32-.15-.47Z" style="fill:#d02149;"/><path d="m192.497,21.498h-65.993c-.167,0-.334.017-.499.05-.075.015-.145.044-.218.066-.083.025-.168.043-.249.077-.155.064-.302.144-.439.237-2.751,1.86-4.599,5.504-4.599,9.07s1.849,7.214,4.601,9.072c0,0,0,0,0,0,1.367.926,2.398,3.043,2.398,4.927s-1.031,4.004-2.398,4.928h-.001c-2.751,1.86-4.6,5.506-4.6,9.072s1.849,7.214,4.601,9.072c0,0,0,0,0,0,1.367.925,2.398,3.043,2.398,4.927s-1.031,4.004-2.398,4.928h-.001c-2.751,1.86-4.6,5.506-4.6,9.072,0,2.708,1.849,7.214,4.601,9.072,0,0,0,0,0,0,1.367.925,2.398,3.043,2.398,4.927,0,.66.27,1.3.74,1.77.46.46,1.11.73,1.76.73.17,0,.33-.021.49-.05.16-.03.32-.08.47-.141.15-.069.3-.14.43-.229.14-.09.27-.2.38-.311.47-.47.73-1.109.73-1.77,0-3.565-1.847-7.208-4.597-9.069-.001,0-.003-.002-.004-.004-1.368-.923-2.399-3.042-2.399-4.928s1.032-4.004,2.4-4.929c.003-.002.005-.005.008-.007,2.746-1.86,4.592-5.501,4.592-9.064s-1.847-7.208-4.597-9.069c-.001,0-.003-.002-.004-.004-1.368-.923-2.399-3.042-2.399-4.928s1.032-4.004,2.4-4.929c.003-.002.005-.005.008-.007,2.746-1.86,4.592-5.501,4.592-9.064s-1.847-7.208-4.597-9.068c-.001-.001-.003-.003-.004-.004-1.368-.923-2.399-3.042-2.399-4.928,0-1.636.778-3.445,1.877-4.5h65.119c1.381,0,2.5-1.119,2.5-2.5s-1.119-2.5-2.5-2.5Z" style="fill:#d02149;"/><path d="m141.962,101.44c9.537,5.023,16.038,15.032,16.038,26.56,0,16.569-13.431,30-30,30s-30-13.431-30-30c0-12.513,7.661-23.237,18.548-27.737" style="fill:none; stroke:#000; stroke-linecap:round; stroke-linejoin:round; stroke-width:5px;"/><path d="m92.697,86.749c-3.936.022-7.398-1.482-10.085-4.137h0l-16.613,28.775h0c6.446,1.768,10.982,7.438,10.982,16.613s-4.536,14.845-10.982,16.613h0l16.613,28.775h0c4.754-4.699,11.933-5.792,19.879-1.204,7.946,4.587,10.588,11.351,8.896,17.818h33.226c-1.692-6.467.951-13.23,8.896-17.818,7.946-4.587,15.124-3.494,19.879,1.205h0l16.613-28.775h0c-6.446-1.768-10.982-7.438-10.982-16.613s4.536-14.845,10.982-16.613l-16.613-28.775h0c-3.559,3.518-8.478,5.015-14.059,3.62" style="fill:none; stroke:#000; stroke-linecap:round; stroke-linejoin:round; stroke-width:5px;"/><path d="m98.37,181.662l-3.921,6.792h0c3.488.957,5.943,4.025,5.943,8.99s-2.455,8.033-5.943,8.99h0l8.99,15.571h0c2.573-2.543,6.457-3.134,10.757-.652,4.3,2.482,5.73,6.142,4.814,9.642h17.98c-.916-3.499.514-7.159,4.814-9.642,4.3-2.482,8.184-1.891,10.757.652h0l5.061-8.765" style="fill:none; stroke:#000; stroke-linecap:round; stroke-linejoin:round; stroke-width:3px;"/><path d="m148.892,198.63c.18,1.591.053,3.208-.365,4.804h30.254c-1.541-5.888.865-12.047,8.101-16.224,7.235-4.177,13.771-3.181,18.1,1.097h0l15.127-26.201h0c-5.87-1.61-10-6.773-10-15.127s4.13-13.517,10-15.127l-15.127-26.201h0c-1.57,1.551-3.429,2.671-5.508,3.269" style="fill:none; stroke:#d02149; stroke-linecap:round; stroke-linejoin:round; stroke-width:4px;"/><path d="m139.265,199.11c0,6.222-5.044,11.265-11.265,11.265s-11.265-5.044-11.265-11.265" style="fill:none; stroke:#000; stroke-linecap:round; stroke-linejoin:round; stroke-width:3px;"/></svg>