<?xml version="1.0" encoding="UTF-8"?><svg id="Layer_1" xmlns="http://www.w3.org/2000/svg" viewBox="0 0 220 80"><path d="m8.953,70.5L21.906,9.5h8.208l13.028,61h-8.058l-2.786-15.362h-12.425l-2.938,15.362h-7.982Zm12.049-21.464h10.167l-5.121-27.486-5.046,27.486Z"/><path d="m50.215,70.5V9.5h12.275c4.067,0,7.429.539,10.092,1.621,2.66,1.079,4.63,2.811,5.911,5.194,1.28,2.386,1.92,5.51,1.92,9.375,0,2.362-.252,4.508-.753,6.439-.503,1.934-1.306,3.565-2.409,4.895-1.105,1.332-2.56,2.299-4.368,2.901l8.66,30.575h-8.208l-7.984-28.616h-6.627v28.616h-8.509Zm8.509-34.718h3.239c2.409,0,4.368-.3,5.874-.904,1.506-.602,2.609-1.629,3.314-3.086.703-1.455,1.054-3.489,1.054-6.101,0-3.563-.652-6.137-1.958-7.717-1.306-1.583-3.891-2.372-7.756-2.372h-3.766v20.181Z"/><path d="m104.987,71.178c-4.117,0-7.406-.804-9.866-2.411-2.46-1.607-4.216-3.903-5.272-6.891-1.054-2.985-1.581-6.488-1.581-10.506v-23.12c0-4.015.539-7.466,1.619-10.353,1.079-2.887,2.835-5.096,5.272-6.627,2.434-1.531,5.71-2.296,9.828-2.296s7.38.779,9.789,2.334c2.411,1.555,4.154,3.764,5.234,6.627,1.079,2.86,1.618,6.3,1.618,10.315v23.196c0,3.966-.539,7.431-1.618,10.391-1.08,2.964-2.823,5.262-5.234,6.891-2.409,1.632-5.674,2.449-9.789,2.449Zm0-6.703c2.259,0,3.966-.463,5.121-1.392s1.933-2.234,2.334-3.917c.402-1.681.603-3.653.603-5.911v-26.734c0-2.261-.202-4.206-.603-5.837s-1.179-2.887-2.334-3.767c-1.155-.877-2.861-1.316-5.121-1.316s-3.98.439-5.159,1.316c-1.179.88-1.971,2.135-2.372,3.767-.402,1.632-.602,3.576-.602,5.837v26.734c0,2.258.2,4.23.602,5.911.402,1.683,1.193,2.988,2.372,3.917s2.9,1.392,5.159,1.392Z"/><path d="m129.739,70.5l1.128-61h8.359l10.77,49.478,10.844-49.478h8.283l1.13,61h-6.853l-.678-44.281-10.315,44.281h-4.821l-10.242-44.281-.678,44.281h-6.927Z"/><path d="m176.855,70.5l12.954-61h8.207l13.031,61h-8.06l-2.786-15.362h-12.426l-2.936,15.362h-7.984Zm12.05-21.464h10.165l-5.121-27.486-5.045,27.486Z"/></svg>