<?xml version="1.0" encoding="UTF-8"?><svg id="Layer_1" xmlns="http://www.w3.org/2000/svg" viewBox="0 0 650 196"><path d="m149.412,146.24h-6.935l-1.318,3.955h-4.206l7.146-19.195h3.665l7.186,19.195h-4.205l-1.332-3.955Zm-5.867-3.203h4.799l-2.412-7.186-2.387,7.186Z"/><path d="m157.454,150.195v-19.195h5.365c1.573,0,2.984.358,4.232,1.074,1.248.717,2.222,1.743,2.92,3.078.699,1.337,1.049,2.857,1.049,4.562v1.766c0,1.715-.348,3.235-1.042,4.562s-1.672,2.351-2.934,3.071c-1.261.721-2.709,1.081-4.344,1.081h-5.247Zm1.621-17.824v16.453h3.639c2.021,0,3.644-.671,4.865-2.012,1.222-1.342,1.832-3.156,1.832-5.443v-1.688c0-2.208-.602-3.976-1.806-5.304s-2.791-1.997-4.759-2.006h-3.771Z"/><path d="m180.63,147.822l.105.408.119-.408,6.038-16.822h1.78l-7.146,19.195h-1.555l-7.146-19.195h1.768l6.037,16.822Z"/><path d="m200.866,144.803h-8.714l-1.979,5.393h-1.7l7.265-19.195h1.542l7.265,19.195h-1.688l-1.991-5.393Zm-8.214-1.371h7.699l-3.85-10.454-3.85,10.454Z"/><path d="m221.656,150.195h-1.621l-11.035-16.427v16.427h-1.635v-19.195h1.635l11.048,16.439v-16.439h1.608v19.195Z"/><path d="m240.127,144.21c-.22,2.021-.942,3.568-2.168,4.641-1.227,1.072-2.859,1.608-4.898,1.608-1.424,0-2.683-.355-3.776-1.068-1.095-.711-1.94-1.72-2.538-3.025-.598-1.305-.901-2.797-.91-4.476v-2.491c0-1.705.299-3.217.896-4.535s1.457-2.336,2.578-3.053c1.12-.716,2.41-1.074,3.869-1.074,2.057,0,3.681.554,4.871,1.661,1.191,1.107,1.883,2.642,2.076,4.601h-1.635c-.404-3.26-2.175-4.891-5.312-4.891-1.74,0-3.127.651-4.159,1.953-1.033,1.302-1.55,3.101-1.55,5.396v2.349c0,2.217.504,3.984,1.51,5.305,1.007,1.319,2.367,1.979,4.08,1.979,1.696,0,2.976-.406,3.837-1.22.861-.812,1.393-2.032,1.595-3.658h1.635Z"/><path d="m254.668,140.993h-8.979v7.831h10.323v1.371h-11.944v-19.195h11.879v1.371h-10.258v7.251h8.979v1.371Z"/><path d="m259.427,150.195v-19.195h5.365c1.573,0,2.984.358,4.232,1.074,1.248.717,2.222,1.743,2.92,3.078.699,1.337,1.049,2.857,1.049,4.562v1.766c0,1.715-.348,3.235-1.042,4.562s-1.672,2.351-2.934,3.071c-1.261.721-2.709,1.081-4.344,1.081h-5.247Zm1.621-17.824v16.453h3.639c2.021,0,3.644-.671,4.865-2.012,1.222-1.342,1.832-3.156,1.832-5.443v-1.688c0-2.208-.602-3.976-1.806-5.304s-2.791-1.997-4.759-2.006h-3.771Z"/><path d="m290.068,143.168h-3.151v7.027h-3.955v-19.195h7.132c2.268,0,4.017.506,5.248,1.516,1.229,1.012,1.846,2.439,1.846,4.285,0,1.31-.284,2.401-.851,3.276-.567.874-1.427,1.571-2.577,2.089l4.152,7.845v.185h-4.245l-3.599-7.027Zm-3.151-3.203h3.19c.993,0,1.762-.253,2.307-.758.545-.506.818-1.202.818-2.09,0-.905-.258-1.617-.771-2.136-.515-.519-1.304-.778-2.367-.778h-3.177v5.762Z"/><path d="m311.504,140.993h-8.979v7.831h10.323v1.371h-11.944v-19.195h11.879v1.371h-10.258v7.251h8.979v1.371Z"/><path d="m327.127,145.476c0-1.063-.374-1.905-1.121-2.524-.747-.62-2.113-1.209-4.1-1.767-1.986-.559-3.437-1.167-4.351-1.826-1.301-.932-1.951-2.153-1.951-3.665,0-1.468.604-2.661,1.812-3.579,1.209-.919,2.753-1.378,4.634-1.378,1.274,0,2.415.246,3.422.738,1.006.492,1.786,1.178,2.34,2.057s.83,1.859.83,2.939h-1.635c0-1.312-.447-2.368-1.344-3.166s-2.102-1.197-3.613-1.197c-1.468,0-2.637.328-3.506.983-.871.656-1.306,1.513-1.306,2.568,0,.978.391,1.774,1.173,2.391s2.035,1.159,3.758,1.631c1.723.471,3.027.959,3.916,1.464.887.506,1.555,1.11,2.004,1.812.447.704.672,1.534.672,2.492,0,1.512-.604,2.725-1.812,3.639-1.209.914-2.802,1.371-4.779,1.371-1.354,0-2.595-.242-3.725-.725-1.129-.483-1.986-1.16-2.57-2.031-.585-.869-.877-1.867-.877-2.992h1.621c0,1.354.506,2.422,1.517,3.203,1.011.783,2.355,1.174,4.034,1.174,1.494,0,2.693-.33,3.6-.988.904-.66,1.357-1.534,1.357-2.624Z"/><path d="m342.855,140.993h-8.979v7.831h10.323v1.371h-11.944v-19.195h11.879v1.371h-10.258v7.251h8.979v1.371Z"/><path d="m354.787,142.193h-5.576v8.002h-1.635v-19.195h6.235c2.048,0,3.647.496,4.799,1.488s1.728,2.379,1.728,4.161c0,1.229-.361,2.312-1.082,3.252s-1.688,1.589-2.9,1.949l4.799,8.173v.172h-1.727l-4.641-8.002Zm-5.576-1.371h4.97c1.362,0,2.456-.388,3.282-1.162.826-.775,1.24-1.778,1.24-3.011,0-1.355-.432-2.407-1.293-3.156-.861-.748-2.069-1.122-3.625-1.122h-4.574v8.451Z"/><path d="m370.291,147.822l.105.408.119-.408,6.038-16.822h1.78l-7.146,19.195h-1.555l-7.146-19.195h1.768l6.037,16.822Z"/><path d="m390.527,144.803h-8.714l-1.979,5.393h-1.7l7.265-19.195h1.542l7.265,19.195h-1.688l-1.991-5.393Zm-8.214-1.371h7.699l-3.85-10.454-3.85,10.454Z"/><path d="m408.351,132.371h-6.578v17.824h-1.622v-17.824h-6.565v-1.371h14.766v1.371Z"/><path d="m413.427,150.195h-1.622v-19.195h1.622v19.195Z"/><path d="m432.82,141.639c0,1.768-.306,3.318-.916,4.654-.611,1.336-1.483,2.364-2.617,3.085s-2.443,1.081-3.929,1.081c-2.241,0-4.052-.802-5.432-2.406-1.38-1.604-2.069-3.768-2.069-6.492v-1.979c0-1.748.31-3.298.929-4.646.62-1.35,1.497-2.387,2.63-3.111,1.135-.726,2.439-1.088,3.916-1.088s2.779.355,3.909,1.068c1.129.711,2.001,1.718,2.616,3.019s.937,2.808.963,4.522v2.293Zm-1.621-2.082c0-2.312-.523-4.122-1.569-5.432s-2.479-1.965-4.298-1.965c-1.784,0-3.206.657-4.265,1.971-1.06,1.314-1.589,3.149-1.589,5.504v2.004c0,2.277.527,4.081,1.582,5.412,1.055,1.332,2.487,1.998,4.298,1.998,1.837,0,3.27-.657,4.298-1.972,1.028-1.313,1.543-3.144,1.543-5.491v-2.029Z"/><path d="m451.197,150.195h-1.621l-11.035-16.427v16.427h-1.635v-19.195h1.635l11.048,16.439v-16.439h1.608v19.195Z"/><path d="m466.939,145.476c0-1.063-.374-1.905-1.121-2.524-.747-.62-2.113-1.209-4.1-1.767-1.986-.559-3.437-1.167-4.351-1.826-1.301-.932-1.951-2.153-1.951-3.665,0-1.468.604-2.661,1.812-3.579,1.209-.919,2.753-1.378,4.634-1.378,1.274,0,2.415.246,3.422.738,1.006.492,1.786,1.178,2.34,2.057s.83,1.859.83,2.939h-1.635c0-1.312-.447-2.368-1.344-3.166s-2.102-1.197-3.613-1.197c-1.468,0-2.637.328-3.506.983-.871.656-1.306,1.513-1.306,2.568,0,.978.391,1.774,1.173,2.391s2.035,1.159,3.758,1.631c1.723.471,3.027.959,3.916,1.464.887.506,1.555,1.11,2.004,1.812.447.704.672,1.534.672,2.492,0,1.512-.604,2.725-1.812,3.639-1.209.914-2.802,1.371-4.779,1.371-1.354,0-2.595-.242-3.725-.725-1.129-.483-1.986-1.16-2.57-2.031-.585-.869-.877-1.867-.877-2.992h1.621c0,1.354.506,2.422,1.517,3.203,1.011.783,2.355,1.174,4.034,1.174,1.494,0,2.693-.33,3.6-.988.904-.66,1.357-1.534,1.357-2.624Z"/><path d="m488.995,144.803h-8.714l-1.979,5.393h-1.7l7.265-19.195h1.542l7.265,19.195h-1.688l-1.991-5.393Zm-8.214-1.371h7.699l-3.85-10.454-3.85,10.454Z"/><path d="m509.787,150.195h-1.621l-11.035-16.427v16.427h-1.635v-19.195h1.635l11.048,16.439v-16.439h1.608v19.195Z"/><path d="m514.664,150.195v-19.195h5.365c1.573,0,2.984.358,4.232,1.074,1.248.717,2.222,1.743,2.92,3.078.699,1.337,1.049,2.857,1.049,4.562v1.766c0,1.715-.348,3.235-1.042,4.562s-1.672,2.351-2.934,3.071c-1.261.721-2.709,1.081-4.344,1.081h-5.247Zm1.621-17.824v16.453h3.639c2.021,0,3.644-.671,4.865-2.012,1.222-1.342,1.832-3.156,1.832-5.443v-1.688c0-2.208-.602-3.976-1.806-5.304s-2.791-1.997-4.759-2.006h-3.771Z"/><path d="m553.964,141.033c0,1.89-.334,3.546-1.002,4.97s-1.624,2.522-2.867,3.296c-1.244.773-2.67,1.16-4.278,1.16-1.591,0-3.011-.383-4.258-1.146-1.249-.766-2.215-1.857-2.9-3.276-.686-1.42-1.033-3.052-1.042-4.897v-.949c0-1.89.341-3.554,1.021-4.99.682-1.438,1.644-2.54,2.888-3.31,1.243-.769,2.665-1.153,4.265-1.153s3.021.385,4.265,1.153c1.244.77,2.206,1.872,2.888,3.31.681,1.437,1.021,3.096,1.021,4.977v.857Zm-4.008-.871c0-2.012-.36-3.541-1.081-4.588-.721-1.045-1.749-1.568-3.085-1.568-1.327,0-2.352.517-3.071,1.549-.722,1.033-1.086,2.547-1.095,4.542v.937c0,1.96.36,3.48,1.081,4.561.721,1.082,1.758,1.622,3.111,1.622,1.327,0,2.347-.521,3.059-1.562.712-1.041,1.072-2.56,1.081-4.555v-.937Z"/><path d="m564.721,142.193h-5.576v8.002h-1.635v-19.195h6.235c2.048,0,3.647.496,4.799,1.488s1.728,2.379,1.728,4.161c0,1.229-.361,2.312-1.082,3.252s-1.688,1.589-2.9,1.949l4.799,8.173v.172h-1.727l-4.641-8.002Zm-5.576-1.371h4.97c1.362,0,2.456-.388,3.282-1.162.826-.775,1.24-1.778,1.24-3.011,0-1.355-.432-2.407-1.293-3.156-.861-.748-2.069-1.122-3.625-1.122h-4.574v8.451Z"/><path d="m574.688,150.195v-19.195h5.365c1.573,0,2.984.358,4.232,1.074,1.248.717,2.222,1.743,2.92,3.078.699,1.337,1.049,2.857,1.049,4.562v1.766c0,1.715-.348,3.235-1.042,4.562s-1.672,2.351-2.934,3.071c-1.261.721-2.709,1.081-4.344,1.081h-5.247Zm1.621-17.824v16.453h3.639c2.021,0,3.644-.671,4.865-2.012,1.222-1.342,1.832-3.156,1.832-5.443v-1.688c0-2.208-.602-3.976-1.806-5.304s-2.791-1.997-4.759-2.006h-3.771Z"/><path d="m602.967,140.993h-8.979v7.831h10.323v1.371h-11.944v-19.195h11.879v1.371h-10.258v7.251h8.979v1.371Z"/><path d="m614.898,142.193h-5.576v8.002h-1.635v-19.195h6.235c2.048,0,3.647.496,4.799,1.488s1.728,2.379,1.728,4.161c0,1.229-.361,2.312-1.082,3.252s-1.688,1.589-2.9,1.949l4.799,8.173v.172h-1.727l-4.641-8.002Zm-5.576-1.371h4.97c1.362,0,2.456-.388,3.282-1.162.826-.775,1.24-1.778,1.24-3.011,0-1.355-.432-2.407-1.293-3.156-.861-.748-2.069-1.122-3.625-1.122h-4.574v8.451Z"/><path d="m635.728,145.476c0-1.063-.374-1.905-1.121-2.524-.747-.62-2.113-1.209-4.1-1.767-1.986-.559-3.437-1.167-4.351-1.826-1.301-.932-1.951-2.153-1.951-3.665,0-1.468.604-2.661,1.812-3.579,1.209-.919,2.753-1.378,4.634-1.378,1.274,0,2.415.246,3.422.738,1.006.492,1.786,1.178,2.34,2.057s.83,1.859.83,2.939h-1.635c0-1.312-.447-2.368-1.344-3.166s-2.102-1.197-3.613-1.197c-1.468,0-2.637.328-3.506.983-.871.656-1.306,1.513-1.306,2.568,0,.978.391,1.774,1.173,2.391s2.035,1.159,3.758,1.631c1.723.471,3.027.959,3.916,1.464.887.506,1.555,1.11,2.004,1.812.447.704.672,1.534.672,2.492,0,1.512-.604,2.725-1.812,3.639-1.209.914-2.802,1.371-4.779,1.371-1.354,0-2.595-.242-3.725-.725-1.129-.483-1.986-1.16-2.57-2.031-.585-.869-.877-1.867-.877-2.992h1.621c0,1.354.506,2.422,1.517,3.203,1.011.783,2.355,1.174,4.034,1.174,1.494,0,2.693-.33,3.6-.988.904-.66,1.357-1.534,1.357-2.624Z"/><path d="m143.743,163.4l4.931,13.922,4.904-13.922h5.194v19.195h-3.968v-5.247l.395-9.058-5.181,14.305h-2.716l-5.168-14.291.396,9.044v5.247h-3.955v-19.195h5.168Z"/><path d="m173.301,177.203h-8.714l-1.979,5.393h-1.7l7.265-19.195h1.542l7.265,19.195h-1.688l-1.991-5.393Zm-8.214-1.371h7.699l-3.85-10.454-3.85,10.454Z"/><path d="m194.092,182.596h-1.621l-11.035-16.427v16.427h-1.635v-19.195h1.635l11.048,16.439v-16.439h1.608v19.195Z"/><path d="m209.569,177.203h-8.714l-1.979,5.393h-1.7l7.265-19.195h1.542l7.265,19.195h-1.688l-1.991-5.393Zm-8.214-1.371h7.699l-3.85-10.454-3.85,10.454Z"/><path d="m229.779,180.314c-.562.801-1.443,1.424-2.643,1.873-1.2.447-2.543.672-4.027.672-1.504,0-2.84-.36-4.008-1.081-1.17-.721-2.075-1.74-2.717-3.059s-.967-2.83-.975-4.535v-2.426c0-2.663.672-4.766,2.017-6.309,1.345-1.542,3.151-2.313,5.419-2.313,1.977,0,3.567.503,4.771,1.51,1.204,1.006,1.921,2.393,2.149,4.159h-1.622c-.236-1.411-.811-2.479-1.72-3.207-.91-.727-2.099-1.091-3.566-1.091-1.793,0-3.213.638-4.259,1.913s-1.568,3.074-1.568,5.396v2.27c0,1.46.248,2.751.745,3.872.496,1.121,1.208,1.99,2.136,2.605.927.616,1.992.924,3.197.924,1.396,0,2.597-.22,3.599-.659.65-.29,1.134-.628,1.45-1.015v-4.957h-5.154v-1.371h6.775v6.828Z"/><path d="m244.98,173.394h-8.979v7.831h10.323v1.371h-11.944v-19.195h11.879v1.371h-10.258v7.251h8.979v1.371Z"/><path d="m251.888,163.4l7.08,16.941,7.105-16.941h2.162v19.195h-1.621v-8.358l.132-8.569-7.146,16.928h-1.252l-7.119-16.861.131,8.45v8.411h-1.621v-19.195h2.148Z"/><path d="m283.701,173.394h-8.979v7.831h10.323v1.371h-11.944v-19.195h11.879v1.371h-10.258v7.251h8.979v1.371Z"/><path d="m302.752,182.596h-1.621l-11.035-16.427v16.427h-1.635v-19.195h1.635l11.048,16.439v-16.439h1.608v19.195Z"/><path d="m320.273,164.771h-6.578v17.824h-1.622v-17.824h-6.565v-1.371h14.766v1.371Z"/><path d="m339.535,178.641h-6.935l-1.318,3.955h-4.206l7.146-19.195h3.664l7.186,19.195h-4.205l-1.332-3.955Zm-5.867-3.203h4.799l-2.412-7.186-2.387,7.186Z"/><path d="m354.749,174.594h-5.576v8.002h-1.635v-19.195h6.235c2.048,0,3.647.496,4.799,1.488s1.728,2.379,1.728,4.161c0,1.229-.361,2.312-1.082,3.252s-1.688,1.589-2.9,1.949l4.799,8.173v.172h-1.727l-4.641-8.002Zm-5.576-1.371h4.97c1.362,0,2.456-.388,3.282-1.162.826-.775,1.24-1.778,1.24-3.011,0-1.355-.432-2.407-1.293-3.156-.861-.748-2.069-1.122-3.625-1.122h-4.574v8.451Z"/><path d="m378.307,176.61c-.22,2.021-.942,3.568-2.168,4.641-1.227,1.072-2.859,1.608-4.898,1.608-1.424,0-2.683-.355-3.776-1.068-1.095-.711-1.94-1.72-2.538-3.025-.598-1.305-.901-2.797-.91-4.476v-2.491c0-1.705.299-3.217.896-4.535s1.457-2.336,2.578-3.053c1.12-.716,2.41-1.074,3.869-1.074,2.057,0,3.681.554,4.871,1.661,1.191,1.107,1.883,2.642,2.076,4.601h-1.635c-.404-3.26-2.175-4.891-5.312-4.891-1.74,0-3.127.651-4.159,1.953-1.033,1.302-1.55,3.101-1.55,5.396v2.349c0,2.217.504,3.984,1.51,5.305,1.007,1.319,2.367,1.979,4.08,1.979,1.696,0,2.976-.406,3.837-1.22.861-.812,1.393-2.032,1.595-3.658h1.635Z"/><path d="m396.474,182.596h-1.635v-9.202h-10.969v9.202h-1.621v-19.195h1.621v8.622h10.969v-8.622h1.635v19.195Z"/><path d="m403.331,182.596h-1.622v-19.195h1.622v19.195Z"/><path d="m421.181,164.771h-6.578v17.824h-1.622v-17.824h-6.565v-1.371h14.766v1.371Z"/><path d="m434.879,173.394h-8.979v7.831h10.323v1.371h-11.944v-19.195h11.879v1.371h-10.258v7.251h8.979v1.371Z"/><path d="m453.23,176.61c-.22,2.021-.942,3.568-2.168,4.641-1.227,1.072-2.859,1.608-4.898,1.608-1.424,0-2.683-.355-3.776-1.068-1.095-.711-1.94-1.72-2.538-3.025-.598-1.305-.901-2.797-.91-4.476v-2.491c0-1.705.299-3.217.896-4.535s1.457-2.336,2.578-3.053c1.12-.716,2.41-1.074,3.869-1.074,2.057,0,3.681.554,4.871,1.661,1.191,1.107,1.883,2.642,2.076,4.601h-1.635c-.404-3.26-2.175-4.891-5.312-4.891-1.74,0-3.127.651-4.159,1.953-1.033,1.302-1.55,3.101-1.55,5.396v2.349c0,2.217.504,3.984,1.51,5.305,1.007,1.319,2.367,1.979,4.08,1.979,1.696,0,2.976-.406,3.837-1.22.861-.812,1.393-2.032,1.595-3.658h1.635Z"/><path d="m469.816,164.771h-6.578v17.824h-1.622v-17.824h-6.565v-1.371h14.766v1.371Z"/><path d="m486.137,163.4v13.104c-.009,1.292-.294,2.417-.856,3.375s-1.355,1.694-2.38,2.208c-1.023.515-2.199.771-3.526.771-2.021,0-3.641-.552-4.858-1.654-1.217-1.104-1.848-2.631-1.892-4.582v-13.223h1.608v12.986c0,1.617.461,2.871,1.385,3.764.922.892,2.175,1.338,3.757,1.338s2.832-.448,3.751-1.345c.918-.896,1.377-2.145,1.377-3.744v-12.999h1.635Z"/><path d="m497.832,174.594h-5.576v8.002h-1.635v-19.195h6.235c2.048,0,3.647.496,4.799,1.488s1.728,2.379,1.728,4.161c0,1.229-.361,2.312-1.082,3.252s-1.688,1.589-2.9,1.949l4.799,8.173v.172h-1.727l-4.641-8.002Zm-5.576-1.371h4.97c1.362,0,2.456-.388,3.282-1.162.826-.775,1.24-1.778,1.24-3.011,0-1.355-.432-2.407-1.293-3.156-.861-.748-2.069-1.122-3.625-1.122h-4.574v8.451Z"/><path d="m518.398,173.394h-8.979v7.831h10.323v1.371h-11.944v-19.195h11.879v1.371h-10.258v7.251h8.979v1.371Z"/><path d="m64,43c1.381,0,2.5-1.119,2.5-2.5s-1.119-2.5-2.5-2.5h-8.997c-1.381,0-2.5,1.119-2.5,2.5s1.119,2.5,2.5,2.5h8.997Z" style="fill:#d02149;"/><path d="m30.003,38h-11c-.499,0-.986.149-1.4.429-2.751,1.859-4.6,5.505-4.6,9.071s1.849,7.214,4.601,9.072c0,0,0,0,0,0,1.367.925,2.398,3.043,2.398,4.927s-1.031,4.004-2.398,4.928h-.001c-2.751,1.86-4.6,5.506-4.6,9.072,0,1.381,1.119,2.5,2.5,2.5s2.5-1.119,2.5-2.5c0-1.886,1.032-4.004,2.4-4.929.003-.002.005-.005.008-.007,2.746-1.86,4.592-5.501,4.592-9.064s-1.847-7.208-4.597-9.068c-.002-.001-.003-.003-.005-.004-1.368-.923-2.399-3.042-2.399-4.928,0-1.635.776-3.445,1.874-4.5h10.126c1.381,0,2.5-1.119,2.5-2.5s-1.119-2.5-2.5-2.5Z" style="fill:#d02149;"/><path d="m77.503,59h-16.5c-.499,0-.986.149-1.4.429-2.751,1.859-4.6,5.505-4.6,9.071s1.849,7.214,4.601,9.072c.429.289.915.428,1.396.428.803,0,1.591-.386,2.074-1.101.773-1.145.472-2.698-.673-3.472-1.368-.923-2.399-3.042-2.399-4.928,0-1.635.776-3.445,1.874-4.5h15.626c1.381,0,2.5-1.119,2.5-2.5s-1.119-2.5-2.5-2.5Z" style="fill:#d02149;"/><path d="m92.31,60.542c-.06-.15-.14-.29-.23-.43-.09-.141-.19-.261-.31-.381-.11-.109-.24-.22-.38-.31-.13-.09-.28-.17-.43-.23-.15-.06-.31-.109-.47-.14-.32-.07-.65-.07-.98,0-.15.03-.31.08-.46.14-.15.061-.3.141-.43.23-.14.09-.27.2-.39.31-.11.12-.22.24-.31.381-.09.14-.16.279-.23.43-.06.149-.11.31-.14.47-.03.16-.05.32-.05.49,0,.66.27,1.3.74,1.77.46.46,1.11.73,1.76.73.17,0,.33-.021.49-.05.16-.03.32-.08.47-.141.15-.069.3-.14.43-.229.14-.09.27-.2.38-.311.47-.47.73-1.109.73-1.77,0-.16-.01-.33-.04-.49-.04-.16-.08-.32-.15-.47Z" style="fill:#d02149;"/><path d="m106,17H40.007c-.167,0-.334.017-.499.05-.075.015-.145.044-.218.066-.083.025-.168.043-.249.077-.155.064-.302.144-.439.237-2.751,1.86-4.599,5.504-4.599,9.07s1.849,7.214,4.601,9.072c0,0,0,0,0,0,1.367.926,2.398,3.043,2.398,4.927s-1.031,4.004-2.398,4.928h-.001c-2.751,1.86-4.6,5.506-4.6,9.072s1.849,7.214,4.601,9.072c0,0,0,0,0,0,1.367.925,2.398,3.043,2.398,4.927s-1.031,4.004-2.398,4.928h-.001c-2.751,1.86-4.6,5.506-4.6,9.072,0,2.708,1.849,7.214,4.601,9.072,0,0,0,0,0,0,1.367.925,2.398,3.043,2.398,4.927,0,.66.27,1.3.74,1.77.46.46,1.11.73,1.76.73.17,0,.33-.021.49-.05.16-.03.32-.08.47-.141.15-.069.3-.14.43-.229.14-.09.27-.2.38-.311.47-.47.73-1.109.73-1.77,0-3.565-1.847-7.208-4.597-9.069-.001,0-.003-.002-.004-.004-1.368-.923-2.399-3.042-2.399-4.928s1.032-4.004,2.4-4.929c.003-.002.005-.005.008-.007,2.746-1.86,4.592-5.501,4.592-9.064s-1.847-7.208-4.597-9.069c-.001,0-.003-.002-.004-.004-1.368-.923-2.399-3.042-2.399-4.928s1.032-4.004,2.4-4.929c.003-.002.005-.005.008-.007,2.746-1.86,4.592-5.501,4.592-9.064s-1.847-7.208-4.597-9.068c-.001-.001-.003-.003-.004-.004-1.368-.923-2.399-3.042-2.399-4.928,0-1.636.778-3.445,1.877-4.5h65.119c1.381,0,2.5-1.119,2.5-2.5s-1.119-2.5-2.5-2.5Z" style="fill:#d02149;"/><path d="m136.953,99l12.953-61h8.208l13.028,61h-8.058l-2.786-15.362h-12.425l-2.938,15.362h-7.982Zm12.049-21.464h10.167l-5.121-27.486-5.046,27.486Z"/><path d="m178.215,99v-61h12.275c4.067,0,7.429.539,10.092,1.621,2.66,1.079,4.63,2.811,5.911,5.194,1.28,2.386,1.92,5.51,1.92,9.375,0,2.362-.252,4.508-.753,6.439-.503,1.934-1.306,3.565-2.409,4.895-1.105,1.332-2.56,2.299-4.368,2.901l8.66,30.575h-8.208l-7.984-28.616h-6.627v28.616h-8.509Zm8.509-34.718h3.239c2.409,0,4.368-.3,5.874-.904,1.506-.602,2.609-1.629,3.314-3.086.703-1.455,1.054-3.489,1.054-6.101,0-3.563-.652-6.137-1.958-7.717-1.306-1.583-3.891-2.372-7.756-2.372h-3.766v20.181Z"/><path d="m232.987,99.678c-4.117,0-7.406-.804-9.866-2.411-2.46-1.607-4.216-3.903-5.272-6.891-1.054-2.985-1.581-6.488-1.581-10.506v-23.12c0-4.015.539-7.466,1.619-10.353,1.079-2.887,2.835-5.096,5.272-6.627,2.434-1.531,5.71-2.296,9.828-2.296s7.38.779,9.789,2.334c2.411,1.555,4.154,3.764,5.234,6.627,1.079,2.86,1.618,6.3,1.618,10.315v23.196c0,3.966-.539,7.431-1.618,10.391-1.08,2.964-2.823,5.262-5.234,6.891-2.409,1.632-5.674,2.449-9.789,2.449Zm0-6.703c2.259,0,3.966-.463,5.121-1.392s1.933-2.234,2.334-3.917c.402-1.681.603-3.653.603-5.911v-26.734c0-2.261-.202-4.206-.603-5.837s-1.179-2.887-2.334-3.767c-1.155-.877-2.861-1.316-5.121-1.316s-3.98.439-5.159,1.316c-1.179.88-1.971,2.135-2.372,3.767-.402,1.632-.602,3.576-.602,5.837v26.734c0,2.258.2,4.23.602,5.911.402,1.683,1.193,2.988,2.372,3.917s2.9,1.392,5.159,1.392Z"/><path d="m257.739,99l1.128-61h8.359l10.77,49.478,10.844-49.478h8.283l1.13,61h-6.853l-.678-44.281-10.315,44.281h-4.821l-10.242-44.281-.678,44.281h-6.927Z"/><path d="m304.855,99l12.954-61h8.207l13.031,61h-8.06l-2.786-15.362h-12.426l-2.936,15.362h-7.984Zm12.05-21.464h10.165l-5.121-27.486-5.045,27.486Z"/></svg>