<?xml version="1.0" encoding="utf-8"?>
<!-- Generator: Adobe Illustrator 27.0.0, SVG Export Plug-In . SVG Version: 6.00 Build 0)  -->
<svg version="1.1" id="Layer_1" xmlns="http://www.w3.org/2000/svg" xmlns:xlink="http://www.w3.org/1999/xlink" x="0px" y="0px"
	 viewBox="0 0 512 242" style="enable-background:new 0 0 512 242;" xml:space="preserve">
<g>
	<path d="M28.539,140.477l31.131-5.489l2.426,13.757l-49.016,8.643L0,83.202l17.884-3.153L28.539,140.477z"/>
	<path d="M110.299,125.956l-24.508,4.321l-1.836,14.613l-19.107,3.369l14.127-78.983l16.814-2.965l40.493,69.352l-19.209,3.387
		L110.299,125.956z M87.636,115.715l15.948-2.812l-12.537-24.32L87.636,115.715z"/>
	<path d="M229.626,119.205l-17.782,3.135l-34.431-41.526l8.14,46.162l-17.884,3.153l-13.081-74.186l17.885-3.153l34.38,41.535
		l-8.14-46.162l17.833-3.144L229.626,119.205z"/>
	<path d="M286.043,32.765l8.562,48.557c0.97,5.503,0.638,10.474-0.996,14.912c-1.634,4.438-4.456,8.098-8.467,10.976
		c-4.01,2.879-9.005,4.845-14.983,5.899c-9.036,1.593-16.565,0.504-22.589-3.267c-6.023-3.771-9.805-9.724-11.344-17.858
		l-8.625-48.914l17.986-3.171l8.688,49.27c1.635,8.084,6.122,11.477,13.459,10.183c3.702-0.653,6.325-2.166,7.868-4.54
		c1.543-2.373,1.91-5.853,1.101-10.438l-8.544-48.455L286.043,32.765z"/>
	<path d="M366.835,58.342c1.276,7.235,1.063,13.875-0.638,19.918c-1.702,6.045-4.758,11.005-9.17,14.882
		c-4.412,3.878-9.777,6.373-16.095,7.487c-6.318,1.114-12.179,0.65-17.582-1.391c-5.404-2.042-9.949-5.522-13.635-10.441
		c-3.687-4.919-6.215-10.864-7.584-17.838l-0.737-4.178c-1.282-7.268-1.079-13.915,0.608-19.94
		c1.687-6.023,4.752-10.985,9.196-14.886c4.443-3.9,9.841-6.411,16.193-7.531c6.284-1.108,12.152-0.601,17.605,1.519
		c5.452,2.121,10.032,5.7,13.74,10.738c3.707,5.038,6.207,11.12,7.499,18.247L366.835,58.342z M348.097,58.441
		c-1.3-7.37-3.518-12.75-6.654-16.138c-3.137-3.386-6.998-4.676-11.583-3.868c-8.968,1.581-12.52,9.142-10.658,22.683l0.91,5.461
		c1.282,7.269,3.473,12.645,6.573,16.125c3.1,3.482,7.028,4.802,11.784,3.964c4.517-0.796,7.661-3.329,9.43-7.6
		c1.769-4.269,2.035-10.007,0.8-17.215L348.097,58.441z"/>
	<path d="M406.437,67.224l5.252-56.614l19.973-3.522l-11.885,78.588l-19.566,3.45l-37.844-69.819l19.82-3.495L406.437,67.224z"/>
	<path d="M486.017,59.707l-24.508,4.321l-1.836,14.613l-19.107,3.369l14.128-78.983l16.814-2.965L512,69.415l-19.208,3.387
		L486.017,59.707z M463.354,49.465l15.948-2.812l-12.537-24.32L463.354,49.465z"/>
	<path d="M63.363,218.795c-0.461-2.615-1.747-4.49-3.855-5.624c-2.109-1.134-5.628-2.072-10.557-2.814
		c-4.929-0.741-9-1.582-12.213-2.523c-10.446-3.025-16.396-8.667-17.851-16.921c-0.725-4.109-0.167-7.947,1.674-11.512
		c1.841-3.563,4.798-6.607,8.871-9.13c4.073-2.522,8.844-4.265,14.313-5.229c5.333-0.94,10.282-0.832,14.846,0.324
		c4.565,1.158,8.329,3.287,11.292,6.388c2.964,3.103,4.844,6.913,5.641,11.431l-17.833,3.145c-0.533-3.023-1.872-5.203-4.017-6.542
		c-2.145-1.337-4.797-1.728-7.956-1.171c-3.193,0.563-5.591,1.713-7.193,3.449c-1.603,1.736-2.212,3.692-1.829,5.865
		c0.335,1.903,1.658,3.446,3.969,4.632c2.311,1.188,6.175,2.151,11.595,2.894c5.419,0.744,9.944,1.776,13.575,3.097
		c8.831,3.207,13.962,8.869,15.394,16.987c1.144,6.488-0.403,12.015-4.642,16.579c-4.238,4.565-10.621,7.599-19.146,9.103
		c-6.013,1.06-11.646,0.942-16.901-0.356c-5.255-1.298-9.445-3.606-12.569-6.925c-3.125-3.319-5.118-7.425-5.981-12.317
		l17.935-3.162c0.701,3.974,2.244,6.723,4.632,8.246c2.387,1.523,5.89,1.877,10.511,1.062c2.955-0.521,5.178-1.57,6.669-3.146
		C63.228,223.048,63.771,221.106,63.363,218.795z"/>
	<path d="M141.487,163.097l-22.266,3.926l10.646,60.378l-17.884,3.153l-10.646-60.378l-21.858,3.854l-2.435-13.808l62.008-10.934
		L141.487,163.097z"/>
	<path d="M193.253,201.934l-24.508,4.321l-1.836,14.613l-19.107,3.369l14.128-78.983l16.814-2.965l40.493,69.352l-19.209,3.387
		L193.253,201.934z M170.591,191.693l15.948-2.812l-12.536-24.32L170.591,191.693z"/>
	<path d="M247.576,179.589l-9.681,1.707l4.627,26.24l-17.884,3.154l-13.081-74.186l29.196-5.148
		c8.797-1.551,16.02-0.813,21.667,2.215c5.647,3.028,9.1,8.104,10.356,15.229c0.909,5.159,0.619,9.618-0.872,13.379
		c-1.49,3.762-4.276,7.087-8.354,9.975l20.771,27.224l0.135,0.764l-19.158,3.378L247.576,179.589z M235.469,167.539l11.311-1.995
		c3.396-0.599,5.795-1.942,7.195-4.033c1.399-2.091,1.818-4.737,1.253-7.938c-0.564-3.2-1.873-5.559-3.927-7.075
		c-2.054-1.516-4.762-1.979-8.125-1.386l-11.311,1.995L235.469,167.539z"/>
	<path d="M337.753,128.49l-22.266,3.926l10.646,60.378l-17.884,3.153l-10.646-60.378l-21.859,3.854l-2.435-13.808l62.008-10.934
		L337.753,128.49z"/>
	<path d="M401.046,103.092l8.562,48.557c0.97,5.503,0.639,10.473-0.996,14.911c-1.634,4.439-4.456,8.098-8.467,10.976
		c-4.01,2.879-9.005,4.845-14.983,5.899c-9.036,1.593-16.565,0.504-22.589-3.267c-6.024-3.771-9.805-9.724-11.345-17.858
		l-8.625-48.914l17.986-3.171l8.688,49.271c1.635,8.083,6.122,11.476,13.458,10.183c3.702-0.653,6.325-2.166,7.868-4.539
		c1.543-2.374,1.91-5.853,1.101-10.439l-8.544-48.455L401.046,103.092z"/>
	<path d="M438.731,146.986l4.438,25.17l-17.884,3.153l-13.081-74.186l29.603-5.22c5.672-1,10.875-0.84,15.609,0.479
		c4.733,1.32,8.637,3.696,11.712,7.129c3.075,3.433,5.043,7.595,5.906,12.487c1.276,7.235-0.295,13.475-4.711,18.719
		c-4.417,5.244-11.143,8.663-20.178,10.256L438.731,146.986z M436.296,133.179l11.719-2.066c3.465-0.611,5.953-1.943,7.465-3.996
		c1.512-2.053,1.99-4.659,1.433-7.818c-0.611-3.465-2.034-6.068-4.267-7.811c-2.233-1.742-4.967-2.346-8.2-1.811l-11.923,2.102
		L436.296,133.179z"/>
</g>
</svg>
