<?xml version="1.0" encoding="utf-8"?>
<!-- Generator: Adobe Illustrator 28.1.0, SVG Export Plug-In . SVG Version: 6.00 Build 0)  -->
<svg version="1.1" id="Layer_1" xmlns="http://www.w3.org/2000/svg" xmlns:xlink="http://www.w3.org/1999/xlink" x="0px" y="0px"
	 viewBox="0 0 256 200" style="enable-background:new 0 0 256 200;" xml:space="preserve">
<style type="text/css">
	.st0{fill:#FFFFFF;}
</style>
<path class="st0" d="M96,62.8l-17.1,6.1c-0.6,0.2-1,0.9-0.7,1.6l25.2,70.3c0.4,1.2,1.6,2,2.9,2h16.7c1.5,0,2.5-1.5,2-2.8L97.5,63.5
	C97.3,62.9,96.6,62.5,96,62.8L96,62.8z"/>
<path class="st0" d="M159.2,139.9l-10.6-29.5l0,0L133.5,68l-5.5-15.4c-0.2-0.6-0.9-1-1.6-0.7L109.3,58c-0.6,0.2-1,0.9-0.7,1.6
	l2.6,7.2l26.5,74c0.4,1.2,1.6,2,2.9,2h16.7C158.7,142.8,159.7,141.3,159.2,139.9L159.2,139.9z"/>
<path class="st0" d="M43.5,81.6v30.1c0,7-5.8,12.7-12.9,12.4c-6.8-0.2-12-6-12-12.8V90.5L0,97.2v14c0,17.1,13.5,31.4,30.6,31.6
	C48,143,62.2,129,62.2,111.7V74.9C62.2,74.9,43.5,81.6,43.5,81.6z"/>
<path class="st0" d="M168.3,59.3l-12.5,34.9c-0.2,0.5-0.2,1,0,1.4l8.9,24.7c0.6,1.7,3,1.7,3.6,0l21.6-60.2c0.5-1.4-0.5-2.8-2-2.8
	h-16.7C169.9,57.2,168.8,58.1,168.3,59.3z"/>
<path class="st0" d="M18.7,58.5c0-0.7-0.5-1.2-1.2-1.2H1.2c-0.7,0-1.2,0.5-1.2,1.2v26.2L18.7,78C18.7,78,18.7,58.5,18.7,58.5z"/>
<path class="st0" d="M62.2,62.4v-3.9c0-0.7-0.5-1.2-1.2-1.2H44.7c-0.7,0-1.2,0.5-1.2,1.2v10.6C43.5,69.1,62.2,62.4,62.2,62.4z"/>
<path class="st0" d="M254.3,78.3c-4.2-12.2-15.8-21-29.4-21c-10.7,0-20.1,5.4-25.7,13.5c-0.4,0.6-0.2,1.5,0.5,1.8l15.1,7.1
	c0.5,0.2,1,0.1,1.4-0.2c2.2-2.2,5.3-3.6,8.7-3.6c4.3,0,8.1,2.2,10.3,5.5c1.3,2,2.1,4.3,2.1,6.9V93l-24.7,4.1l0,0l-8.2,1.4
	c-6.1,1-10.6,6.3-10.6,12.5v13.1c0,10.3,8.4,18.7,18.7,18.7h24.9c10.3,0,18.7-8.4,18.7-18.7V92.4l0,0v-4.1
	C256,84.8,255.4,81.4,254.3,78.3L254.3,78.3z M237.3,119.4c0,3.4-2.8,6.2-6.2,6.2h-12.4c-3.4,0-6.2-2.8-6.2-6.2v-3.1
	c0-1.2,0.9-2.2,2.1-2.4l20.7-3.5c1.1-0.2,2.1,0.7,2.1,1.8l0,0l0,0V119.4L237.3,119.4z"/>
<ellipse transform="matrix(0.9414 -0.3374 0.3374 0.9414 9.7098 76.4891)" class="st0" cx="224.9" cy="10.3" rx="13.5" ry="9.6"/>
</svg>
