<?xml version="1.0" encoding="UTF-8"?><svg id="Layer_1" xmlns="http://www.w3.org/2000/svg" viewBox="0 0 65 150"><path d="M63.245,82.592c-4.377-12.777-16.484-21.967-30.745-21.967-11.132,0-20.955,5.597-26.813,14.13-.444.647-.208,1.539.502,1.875l15.8,7.462c.476.225,1.044.134,1.419-.236,2.34-2.305,5.545-3.731,9.091-3.731,4.511,0,8.483,2.299,10.814,5.788,1.379,2.064,2.186,4.543,2.186,7.212v4.875l-25.795,4.299h0s-8.601,1.434-8.601,1.434c-6.407,1.068-11.104,6.612-11.104,13.107v13.66c0,10.77,8.73,19.5,19.5,19.5h26c10.77,0,19.5-8.73,19.5-19.5v-33.131h0v-4.244c0-3.688-.623-7.229-1.755-10.533ZM45.5,125.625c0,3.59-2.91,6.5-6.5,6.5h-13c-3.59,0-6.5-2.91-6.5-6.5v-3.25c.004-1.252.911-2.318,2.146-2.524l21.641-3.607c1.159-.193,2.214.7,2.214,1.875h0s0,.001,0,.001v7.505Z" style="fill:#140a28; stroke-width:0px;"/><ellipse cx="32.5" cy="11.574" rx="14.121" ry="10.086" transform="translate(-1.999 11.644) rotate(-19.719)" style="fill:#140a28; stroke-width:0px;"/></svg>