<?xml version="1.0" encoding="UTF-8"?><svg id="Layer_1" xmlns="http://www.w3.org/2000/svg" xmlns:xlink="http://www.w3.org/1999/xlink" viewBox="0 0 256 200"><defs><linearGradient id="linear-gradient" x1="95.074" y1="130.895" x2="115.711" y2="49.723" gradientUnits="userSpaceOnUse"><stop offset="0" stop-color="#3c5aff"/><stop offset="1" stop-color="#3c1e63"/></linearGradient><linearGradient id="linear-gradient-2" x1="124.182" y1="138.296" x2="144.819" y2="57.124" xlink:href="#linear-gradient"/><linearGradient id="linear-gradient-3" x1="29.123" y1="114.128" x2="49.76" y2="32.956" xlink:href="#linear-gradient"/><linearGradient id="linear-gradient-4" x1="197.577" y1="66.724" x2="161.347" y2="95.157" xlink:href="#linear-gradient"/><linearGradient id="linear-gradient-5" x1="7.694" y1="42.121" x2="9.528" y2="75.14" xlink:href="#linear-gradient"/><linearGradient id="linear-gradient-6" x1="51.525" y1="39.686" x2="53.36" y2="72.705" xlink:href="#linear-gradient"/><linearGradient id="linear-gradient-7" x1="211.831" y1="160.579" x2="232.468" y2="79.407" xlink:href="#linear-gradient"/></defs><path d="M95.966,62.763l-17.074,6.12c-.631.226-.959.921-.733,1.551l25.198,70.303c.434,1.211,1.582,2.019,2.869,2.019h16.676c1.473,0,2.5-1.46,2.003-2.846l-27.389-76.414c-.226-.631-.921-.959-1.551-.733Z" style="fill:url(#linear-gradient); stroke-width:0px;"/><path d="M159.236,139.919l-10.582-29.523h0s-15.194-42.393-15.194-42.393l-5.523-15.41c-.226-.631-.921-.959-1.551-.733l-17.074,6.12c-.631.226-.959.921-.733,1.551l2.575,7.183,26.531,74.023c.434,1.211,1.582,2.019,2.869,2.019h16.686c1.468,0,2.492-1.455,1.997-2.837Z" style="fill:url(#linear-gradient-2); stroke-width:0px;"/><path d="M43.534,81.556v30.105c0,7.011-5.8,12.667-12.864,12.431-6.756-.226-12.012-5.997-12.012-12.757v-20.863L0,97.159v13.961C0,128.188,13.526,142.482,30.592,142.752c17.404.275,31.599-13.75,31.599-31.091v-36.792l-18.657,6.687Z" style="fill:url(#linear-gradient-3); stroke-width:0px;"/><path d="M168.334,59.263l-12.506,34.892c-.165.462-.165.966,0,1.428l8.87,24.747c.604,1.686,2.989,1.686,3.593,0l21.591-60.24c.497-1.386-.531-2.846-2.003-2.846h-16.676c-1.287,0-2.435.808-2.869,2.019Z" style="fill:url(#linear-gradient-4); stroke-width:0px;"/><path d="M18.657,58.457c0-.67-.543-1.213-1.213-1.213H1.213c-.67,0-1.213.543-1.213,1.213v26.219l18.657-6.687v-19.532Z" style="fill:url(#linear-gradient-5); stroke-width:0px;"/><path d="M62.191,62.386v-3.929c0-.67-.543-1.213-1.213-1.213h-16.231c-.67,0-1.213.543-1.213,1.213v10.616l18.657-6.687Z" style="fill:url(#linear-gradient-6); stroke-width:0px;"/><path d="M254.321,78.261c-4.188-12.225-15.771-21.017-29.416-21.017-10.651,0-20.05,5.355-25.654,13.519-.425.619-.199,1.473.48,1.794l15.118,7.14c.456.215.999.128,1.358-.226,2.239-2.205,5.306-3.57,8.699-3.57,4.316,0,8.116,2.2,10.347,5.538,1.32,1.975,2.091,4.347,2.091,6.9v4.664l-24.68,4.113h0s-8.23,1.372-8.23,1.372c-6.131,1.022-10.624,6.326-10.624,12.541v13.07c0,10.304,8.353,18.657,18.657,18.657h24.876c10.304,0,18.657-8.353,18.657-18.657v-31.699h0v-4.061c0-3.529-.596-6.917-1.679-10.078ZM237.343,119.435c0,3.435-2.784,6.219-6.219,6.219h-12.438c-3.435,0-6.219-2.784-6.219-6.219v-3.11c.004-1.198.871-2.218,2.053-2.415l20.705-3.451c1.109-.185,2.118.67,2.118,1.794h0s0,0,0,0v7.18Z" style="fill:url(#linear-gradient-7); stroke-width:0px;"/><ellipse cx="224.905" cy="10.312" rx="13.511" ry="9.65" transform="translate(9.709 76.488) rotate(-19.719)" style="fill:#3c1e63; stroke-width:0px;"/></svg>