<?xml version="1.0" encoding="UTF-8"?><svg id="Layer_1" xmlns="http://www.w3.org/2000/svg" viewBox="0 0 960 980"><polygon points="936.629 61.216 876.741 22.066 876.74 22.066 876.741 22.066 654.504 5.174 552.5 0 407.5 0 305.496 5.174 83.259 22.066 83.26 22.066 83.259 22.066 23.371 61.216 0 203.58 59.544 369.93 145.309 450.577 161.217 346.655 177.365 471.935 258.477 682.633 321.995 743.76 328.309 669.851 352.515 762.303 447.167 950.342 469.664 973.578 480 980 490.336 973.578 512.833 950.342 569.38 836.451 569.38 836.451 593.345 741.171 599.9 817.908 665.448 778.082 756.835 575.611 773.72 475.731 788.891 554.254 889.394 451.055 960 203.58 936.629 61.216" style="fill:#140a28; opacity:.15; stroke-width:0px;"/><polygon points="921.723 59.159 863.79 21.325 863.789 21.325 863.79 21.325 648.807 5 552.5 0 407.5 0 311.192 5 96.21 21.325 96.211 21.325 96.21 21.325 38.277 59.159 15.669 196.739 73.27 357.5 156.234 435.437 171.623 335.006 187.244 456.076 265.708 659.694 327.153 718.767 333.26 647.342 356.677 736.687 448.238 918.408 470.001 940.862 480 947.069 489.999 940.862 511.762 918.408 566.462 808.344 566.462 808.344 589.645 716.266 595.986 790.424 659.395 751.936 747.798 556.269 764.132 459.745 778.807 535.629 876.03 435.898 944.331 196.739 921.723 59.159" style="fill:#fff; stroke-width:0px;"/><polygon points="171.623 335.006 197.304 224.943 188.419 340.509 211.432 458.828 282.228 647.312 327.153 718.767 265.708 659.694 187.244 456.076 171.623 335.006" style="fill:#faf8ff; stroke-width:0px;"/><polygon points="511.762 918.408 489.999 940.862 480 947.069 470.001 940.862 448.238 918.408 356.677 736.687 333.26 647.342 347.266 443.694 381.661 373.529 361.024 446.446 356.897 647.312 376.158 731.236 457.33 903.21 480 930.726 511.762 918.408" style="fill:#faf8ff; stroke-width:0px;"/><polygon points="659.395 751.936 595.986 790.424 589.645 716.266 610.043 612.917 608.667 718.767 614.17 760.127 659.395 751.936" style="fill:#faf8ff; stroke-width:0px;"/><polygon points="777.89 341.885 764.132 459.745 778.807 535.629 856.318 456.119 793.024 504.229 777.89 453.325 777.89 341.885" style="fill:#faf8ff; stroke-width:0px;"/><polygon points="311.192 5 96.21 21.325 38.277 59.159 15.669 196.739 73.27 357.5 156.234 435.437 87.928 346.7 35.103 196.051 54.221 65.35 104.27 28.892 423.962 0 407.5 0 311.192 5" style="fill:#faf8ff; stroke-width:0px;"/></svg>