<?xml version="1.0" encoding="UTF-8"?><svg id="Layer_1" xmlns="http://www.w3.org/2000/svg" viewBox="0 0 330 330"><path d="M210,1c2.206,0,4,1.794,4,4v40c0,2.206-1.794,4-4,4H60c-2.206,0-4-1.794-4-4V5c0-2.206,1.794-4,4-4h150M210,0H60c-2.761,0-5,2.239-5,5v40c0,2.761,2.239,5,5,5h150c2.761,0,5-2.239,5-5V5c0-2.761-2.239-5-5-5h0Z" style="fill:#dce600; stroke-width:0px;"/><path d="M320,166c2.206,0,4,1.794,4,4v40c0,2.206-1.794,4-4,4h-150c-2.206,0-4-1.794-4-4v-40c0-2.206,1.794-4,4-4h150M320,165h-150c-2.761,0-5,2.239-5,5v40c0,2.761,2.239,5,5,5h150c2.761,0,5-2.239,5-5v-40c0-2.761-2.239-5-5-5h0Z" style="fill:#dce600; stroke-width:0px;"/><path d="M265,1c2.206,0,4,1.794,4,4v40c0,2.206-1.794,4-4,4h-40c-2.206,0-4-1.794-4-4V5c0-2.206,1.794-4,4-4h40M265,0h-40c-2.761,0-5,2.239-5,5v40c0,2.761,2.239,5,5,5h40c2.761,0,5-2.239,5-5V5c0-2.761-2.239-5-5-5h0Z" style="fill:#dce600; stroke-width:0px;"/><path d="M320,1c2.206,0,4,1.794,4,4v40c0,2.206-1.794,4-4,4h-40c-2.206,0-4-1.794-4-4V5c0-2.206,1.794-4,4-4h40M320,0h-40c-2.761,0-5,2.239-5,5v40c0,2.761,2.239,5,5,5h40c2.761,0,5-2.239,5-5V5c0-2.761-2.239-5-5-5h0Z" style="fill:#dce600; stroke-width:0px;"/><path d="M155,111c2.206,0,4,1.794,4,4v40c0,2.206-1.794,4-4,4h-40c-2.206,0-4-1.794-4-4v-40c0-2.206,1.794-4,4-4h40M155,110h-40c-2.761,0-5,2.239-5,5v40c0,2.761,2.239,5,5,5h40c2.761,0,5-2.239,5-5v-40c0-2.761-2.239-5-5-5h0Z" style="fill:#dce600; stroke-width:0px;"/><path d="M320,111c2.206,0,4,1.794,4,4v40c0,2.206-1.794,4-4,4h-40c-2.206,0-4-1.794-4-4v-40c0-2.206,1.794-4,4-4h40M320,110h-40c-2.761,0-5,2.239-5,5v40c0,2.761,2.239,5,5,5h40c2.761,0,5-2.239,5-5v-40c0-2.761-2.239-5-5-5h0Z" style="fill:#dce600; stroke-width:0px;"/><path d="M45,1c2.206,0,4,1.794,4,4v40c0,2.206-1.794,4-4,4H5c-2.206,0-4-1.794-4-4V5C1,2.794,2.794,1,5,1h40M45,0H5C2.239,0,0,2.239,0,5v40c0,2.761,2.239,5,5,5h40c2.761,0,5-2.239,5-5V5c0-2.761-2.239-5-5-5h0Z" style="fill:#dce600; stroke-width:0px;"/><path d="M45,276c2.206,0,4,1.794,4,4v40c0,2.206-1.794,4-4,4H5c-2.206,0-4-1.794-4-4v-40c0-2.206,1.794-4,4-4h40M45,275H5c-2.761,0-5,2.239-5,5v40c0,2.761,2.239,5,5,5h40c2.761,0,5-2.239,5-5v-40c0-2.761-2.239-5-5-5h0Z" style="fill:#dce600; stroke-width:0px;"/><path d="M320,276c2.206,0,4,1.794,4,4v40c0,2.206-1.794,4-4,4h-40c-2.206,0-4-1.794-4-4v-40c0-2.206,1.794-4,4-4h40M320,275h-40c-2.761,0-5,2.239-5,5v40c0,2.761,2.239,5,5,5h40c2.761,0,5-2.239,5-5v-40c0-2.761-2.239-5-5-5h0Z" style="fill:#dce600; stroke-width:0px;"/><path d="M320,221c2.206,0,4,1.794,4,4v40c0,2.206-1.794,4-4,4h-40c-2.206,0-4-1.794-4-4v-40c0-2.206,1.794-4,4-4h40M320,220h-40c-2.761,0-5,2.239-5,5v40c0,2.761,2.239,5,5,5h40c2.761,0,5-2.239,5-5v-40c0-2.761-2.239-5-5-5h0Z" style="fill:#dce600; stroke-width:0px;"/><path d="M100,276c2.206,0,4,1.794,4,4v40c0,2.206-1.794,4-4,4h-40c-2.206,0-4-1.794-4-4v-40c0-2.206,1.794-4,4-4h40M100,275h-40c-2.761,0-5,2.239-5,5v40c0,2.761,2.239,5,5,5h40c2.761,0,5-2.239,5-5v-40c0-2.761-2.239-5-5-5h0Z" style="fill:#dce600; stroke-width:0px;"/><path d="M155,276c2.206,0,4,1.794,4,4v40c0,2.206-1.794,4-4,4h-40c-2.206,0-4-1.794-4-4v-40c0-2.206,1.794-4,4-4h40M155,275h-40c-2.761,0-5,2.239-5,5v40c0,2.761,2.239,5,5,5h40c2.761,0,5-2.239,5-5v-40c0-2.761-2.239-5-5-5h0Z" style="fill:#dce600; stroke-width:0px;"/><path d="M45,221c2.206,0,4,1.794,4,4v40c0,2.206-1.794,4-4,4H5c-2.206,0-4-1.794-4-4v-40c0-2.206,1.794-4,4-4h40M45,220H5c-2.761,0-5,2.239-5,5v40c0,2.761,2.239,5,5,5h40c2.761,0,5-2.239,5-5v-40c0-2.761-2.239-5-5-5h0Z" style="fill:#dce600; stroke-width:0px;"/><path d="M210,111c2.206,0,4,1.794,4,4v40c0,2.206-1.794,4-4,4h-40c-2.206,0-4-1.794-4-4v-40c0-2.206,1.794-4,4-4h40M210,110h-40c-2.761,0-5,2.239-5,5v40c0,2.761,2.239,5,5,5h40c2.761,0,5-2.239,5-5v-40c0-2.761-2.239-5-5-5h0Z" style="fill:#dce600; stroke-width:0px;"/><path d="M265,111c2.206,0,4,1.794,4,4v40c0,2.206-1.794,4-4,4h-40c-2.206,0-4-1.794-4-4v-40c0-2.206,1.794-4,4-4h40M265,110h-40c-2.761,0-5,2.239-5,5v40c0,2.761,2.239,5,5,5h40c2.761,0,5-2.239,5-5v-40c0-2.761-2.239-5-5-5h0Z" style="fill:#dce600; stroke-width:0px;"/><path d="M155,166c2.206,0,4,1.794,4,4v40c0,2.206-1.794,4-4,4h-40c-2.206,0-4-1.794-4-4v-40c0-2.206,1.794-4,4-4h40M155,165h-40c-2.761,0-5,2.239-5,5v40c0,2.761,2.239,5,5,5h40c2.761,0,5-2.239,5-5v-40c0-2.761-2.239-5-5-5h0Z" style="fill:#dce600; stroke-width:0px;"/><path d="M100,166c2.206,0,4,1.794,4,4v40c0,2.206-1.794,4-4,4h-40c-2.206,0-4-1.794-4-4v-40c0-2.206,1.794-4,4-4h40M100,165h-40c-2.761,0-5,2.239-5,5v40c0,2.761,2.239,5,5,5h40c2.761,0,5-2.239,5-5v-40c0-2.761-2.239-5-5-5h0Z" style="fill:#dce600; stroke-width:0px;"/><path d="M45,166c2.206,0,4,1.794,4,4v40c0,2.206-1.794,4-4,4H5c-2.206,0-4-1.794-4-4v-40c0-2.206,1.794-4,4-4h40M45,165H5C2.239,165,0,167.239,0,170v40c0,2.761,2.239,5,5,5h40c2.761,0,5-2.239,5-5v-40c0-2.761-2.239-5-5-5h0Z" style="fill:#dce600; stroke-width:0px;"/><path d="M210,221c2.206,0,4,1.794,4,4v40c0,2.206-1.794,4-4,4h-40c-2.206,0-4-1.794-4-4v-40c0-2.206,1.794-4,4-4h40M210,220h-40c-2.761,0-5,2.239-5,5v40c0,2.761,2.239,5,5,5h40c2.761,0,5-2.239,5-5v-40c0-2.761-2.239-5-5-5h0Z" style="fill:#dce600; stroke-width:0px;"/><path d="M265,221c2.206,0,4,1.794,4,4v40c0,2.206-1.794,4-4,4h-40c-2.206,0-4-1.794-4-4v-40c0-2.206,1.794-4,4-4h40M265,220h-40c-2.761,0-5,2.239-5,5v40c0,2.761,2.239,5,5,5h40c2.761,0,5-2.239,5-5v-40c0-2.761-2.239-5-5-5h0Z" style="fill:#dce600; stroke-width:0px;"/><path d="M100,56c2.206,0,4,1.794,4,4v40c0,2.206-1.794,4-4,4h-40c-2.206,0-4-1.794-4-4v-40c0-2.206,1.794-4,4-4h40M100,55h-40c-2.761,0-5,2.239-5,5v40c0,2.761,2.239,5,5,5h40c2.761,0,5-2.239,5-5v-40c0-2.761-2.239-5-5-5h0Z" style="fill:#dce600; stroke-width:0px;"/><path d="M265,56c2.206,0,4,1.794,4,4v40c0,2.206-1.794,4-4,4h-40c-2.206,0-4-1.794-4-4v-40c0-2.206,1.794-4,4-4h40M265,55h-40c-2.761,0-5,2.239-5,5v40c0,2.761,2.239,5,5,5h40c2.761,0,5-2.239,5-5v-40c0-2.761-2.239-5-5-5h0Z" style="fill:#dce600; stroke-width:0px;"/><path d="M210,56c2.206,0,4,1.794,4,4v40c0,2.206-1.794,4-4,4h-95c-2.206,0-4-1.794-4-4v-40c0-2.206,1.794-4,4-4h95M210,55h-95c-2.761,0-5,2.239-5,5v40c0,2.761,2.239,5,5,5h95c2.761,0,5-2.239,5-5v-40c0-2.761-2.239-5-5-5h0Z" style="fill:#dce600; stroke-width:0px;"/><path d="M100,111c2.206,0,4,1.794,4,4v40c0,2.206-1.794,4-4,4H5c-2.206,0-4-1.794-4-4v-40c0-2.206,1.794-4,4-4h95M100,110H5c-2.761,0-5,2.239-5,5v40c0,2.761,2.239,5,5,5h95c2.761,0,5-2.239,5-5v-40c0-2.761-2.239-5-5-5h0Z" style="fill:#dce600; stroke-width:0px;"/><path d="M155,221c2.206,0,4,1.794,4,4v40c0,2.206-1.794,4-4,4H60c-2.206,0-4-1.794-4-4v-40c0-2.206,1.794-4,4-4h95M155,220H60c-2.761,0-5,2.239-5,5v40c0,2.761,2.239,5,5,5h95c2.761,0,5-2.239,5-5v-40c0-2.761-2.239-5-5-5h0Z" style="fill:#dce600; stroke-width:0px;"/><path d="M265,276c2.206,0,4,1.794,4,4v40c0,2.206-1.794,4-4,4h-95c-2.206,0-4-1.794-4-4v-40c0-2.206,1.794-4,4-4h95M265,275h-95c-2.761,0-5,2.239-5,5v40c0,2.761,2.239,5,5,5h95c2.761,0,5-2.239,5-5v-40c0-2.761-2.239-5-5-5h0Z" style="fill:#dce600; stroke-width:0px;"/><path d="M45,55H0v1h45c2.206,0,4,1.794,4,4v40c0,2.206-1.794,4-4,4H0v1h45c2.761,0,5-2.239,5-5v-40c0-2.761-2.239-5-5-5Z" style="fill:#dce600; stroke-width:0px;"/><path d="M280,105h50s0-1,0-1h-50c-2.206,0-4-1.794-4-4v-40c0-2.206,1.794-4,4-4h50s0-1,0-1h-50c-2.761,0-5,2.239-5,5v40c0,2.761,2.239,5,5,5Z" style="fill:#dce600; stroke-width:0px;"/></svg>